<svg width="89" height="37" viewBox="0 0 89 37" fill="none" xmlns="http://www.w3.org/2000/svg">
<path d="M3.13684 32.4372C4.33844 31.4353 5.54004 30.4335 6.74165 29.4316C8.41054 31.1014 10.3465 31.6357 12.4826 30.901C15.9539 29.7656 17.2223 25.8917 15.1529 22.7526C11.2143 16.6746 14.0848 8.99376 21.0274 7.05684C24.6989 6.05498 29.3718 7.52437 31.3077 10.3964C30.1061 11.3982 28.9045 12.4001 27.7029 13.4019C26.034 11.9993 24.2984 11.1978 22.1622 11.8657C18.6242 12.8676 17.1555 16.875 19.1582 19.9474C23.3638 26.3592 20.1595 34.3073 12.6161 35.9771C9.27836 36.645 5.07276 35.1756 3.13684 32.4372Z" fill="#919191"/>
<path d="M12.1492 20.6822C6.87549 20.0811 4.7393 24.4225 6.00766 27.9624C4.7393 29.031 3.47095 30.0329 2.06908 31.1683C0.934231 29.6321 0.533698 28.0291 0.533698 26.2926C0.466942 20.6822 0.533698 15.005 0.533698 9.39464C0.533698 9.26106 0.600453 9.19427 0.667209 8.9939C2.26935 9.06069 3.87148 9.12748 5.60713 9.26106C5.60713 11.7991 5.60713 14.2035 5.60713 16.5412C7.67656 16.0737 9.67922 15.6729 11.6819 15.2054C11.7487 17.2759 11.9489 18.9457 12.1492 20.6822Z" fill="#919191"/>
<path d="M22.8314 27.2278C22.6311 25.4912 22.4309 23.8215 22.2306 22.0849C24.1665 22.4189 26.0357 22.0181 27.4375 20.482C28.9062 18.879 29.1064 17.0089 28.4389 14.9384C29.7072 13.8697 31.0423 12.8011 32.3107 11.7324C34.3801 14.2037 34.4469 18.7454 32.5777 22.0849C30.6418 25.558 26.503 27.7621 22.8314 27.2278Z" fill="#919191"/>
<path d="M13.3517 0.11084C15.0873 0.17763 16.6227 0.311211 18.2916 0.378001C18.2916 2.4485 18.2916 4.38542 18.2916 5.98839C16.4892 7.59136 14.8871 9.06075 13.3517 10.4633C13.3517 7.19062 13.3517 3.78431 13.3517 0.11084Z" fill="#919191"/>
<path d="M45.1368 15.5395V16.341H41.3984V9.8623H45.07V10.6638H42.1995V12.6675H44.803V13.4022H42.1995V15.6063H45.1368V15.5395Z" fill="#919191"/>
<path d="M49.0085 11.265V11.9997H48.4744C47.5398 11.9997 47.0726 12.6008 47.0726 13.5359V16.2743H46.2715V11.265H46.8055L46.939 11.9997C47.2728 11.4654 47.8069 11.1982 48.5412 11.1982H49.0085V11.265Z" fill="#919191"/>
<path d="M51.4807 14.0701H50.7464V16.3409H49.9453V9.52832H50.7464V13.3354H51.4807L53.0161 11.3317H53.9507L52.1482 13.7361L54.1509 16.3409H53.1496L51.4807 14.0701Z" fill="#919191"/>
<path d="M59.4911 14.137H55.2187C55.3522 15.0721 56.0198 15.6732 56.9543 15.6732C57.6219 15.6732 58.2227 15.3392 58.4897 14.8049H59.4243C59.0238 15.8068 58.1559 16.4079 57.0211 16.4079C55.5525 16.4079 54.4844 15.2725 54.4844 13.8031C54.4844 12.3337 55.5525 11.1982 57.0211 11.1982C58.5565 11.1982 59.5578 12.4005 59.5578 13.8031C59.5578 13.9366 59.4911 14.0034 59.4911 14.137ZM55.2854 13.4023H58.7567C58.5565 12.534 57.8889 11.9329 57.0211 11.9329C56.0865 11.9329 55.419 12.534 55.2854 13.4023Z" fill="#919191"/>
<path d="M65.1642 13.3353V16.3409H64.3631V13.5357C64.3631 12.5339 63.8958 11.9327 63.028 11.9327C62.1602 11.9327 61.4926 12.6674 61.4926 13.6025V16.3409H60.6915V11.3316H61.2256L61.4258 12.1331C61.8264 11.5988 62.4272 11.2648 63.2282 11.2648C64.3631 11.1981 65.1642 12.1331 65.1642 13.3353Z" fill="#919191"/>
<path d="M71.4397 9.52832V16.3409H70.8389L70.7054 15.6062C70.2381 16.1406 69.5706 16.4077 68.7695 16.4077C67.3009 16.4077 66.166 15.2723 66.166 13.8029C66.166 12.3335 67.2341 11.1981 68.7695 11.1981C69.5038 11.1981 70.1714 11.4652 70.6386 11.9328V9.52832H71.4397ZM70.7054 13.8029C70.7054 12.7343 69.9043 11.9328 68.8362 11.9328C67.7682 11.9328 67.0338 12.7343 67.0338 13.8029C67.0338 14.8715 67.8349 15.673 68.8362 15.673C69.9711 15.673 70.7054 14.8715 70.7054 13.8029Z" fill="#919191"/>
<path d="M41.2656 18.2112H42.0667V25.0238H41.2656V18.2112Z" fill="#919191"/>
<path d="M48.2747 22.8196H44.0023C44.1359 23.7547 44.8034 24.3558 45.738 24.3558C46.4056 24.3558 47.0064 24.0219 47.2734 23.4875H48.0744C47.6739 24.4894 46.8061 25.0905 45.6712 25.0905C44.2026 25.0905 43.1345 23.9551 43.1345 22.4857C43.1345 21.0163 44.2026 19.8809 45.6712 19.8809C47.2066 19.8809 48.208 21.0831 48.208 22.4857C48.2747 22.6193 48.2747 22.6861 48.2747 22.8196ZM44.0691 22.0849H47.5404C47.3401 21.2167 46.6726 20.6156 45.8047 20.6156C44.8702 20.6156 44.2026 21.2167 44.0691 22.0849Z" fill="#919191"/>
<path d="M54.15 22.8196H49.8776C50.0111 23.7547 50.6787 24.3558 51.6132 24.3558C52.2808 24.3558 52.8816 24.0219 53.1486 23.4875H53.9497C53.5492 24.4894 52.6813 25.0905 51.5465 25.0905C50.0779 25.0905 49.0098 23.9551 49.0098 22.4857C49.0098 21.0163 50.0779 19.8809 51.5465 19.8809C53.0819 19.8809 54.0832 21.0831 54.0832 22.4857C54.15 22.6193 54.15 22.6861 54.15 22.8196ZM49.8776 22.0849H53.3489C53.1486 21.2167 52.4811 20.6156 51.6132 20.6156C50.7454 20.6156 50.0779 21.2167 49.8776 22.0849Z" fill="#919191"/>
<path d="M58.0221 19.9476V20.6823H57.4881C56.5535 20.6823 56.0862 21.2835 56.0862 22.2185V24.9569H55.2852V19.9476H55.8192L55.9527 20.6823C56.2865 20.148 56.8205 19.8809 57.5548 19.8809H58.0221V19.9476Z" fill="#919191"/>
<path d="M64.0958 22.4858C64.0958 23.9552 63.0278 25.0906 61.4924 25.0906C60.6913 25.0906 60.0237 24.7566 59.5565 24.2891L59.4229 25.0238H58.8221V18.2112H59.6232V20.6156C60.0905 20.1481 60.7581 19.8809 61.4924 19.8809C63.0278 19.8809 64.0958 21.0164 64.0958 22.4858ZM63.2948 22.4858C63.2948 21.4171 62.4937 20.6156 61.4924 20.6156C60.4243 20.6156 59.6232 21.4171 59.6232 22.4858C59.6232 23.5544 60.4243 24.3559 61.4924 24.3559C62.5605 24.3559 63.2948 23.5544 63.2948 22.4858Z" fill="#919191"/>
<path d="M69.9704 22.8196H65.698C65.8315 23.7547 66.4991 24.3558 67.4337 24.3558C68.1012 24.3558 68.702 24.0219 68.9691 23.4875H69.7701C69.3696 24.4894 68.5018 25.0905 67.3669 25.0905C65.8983 25.0905 64.8302 23.9551 64.8302 22.4857C64.8302 21.0163 65.8983 19.8809 67.3669 19.8809C68.9023 19.8809 69.9036 21.0831 69.9036 22.4857C69.9704 22.6193 69.9704 22.6861 69.9704 22.8196ZM65.698 22.0849H69.1693C68.9691 21.2167 68.3015 20.6156 67.4337 20.6156C66.5658 20.6156 65.8983 21.2167 65.698 22.0849Z" fill="#919191"/>
<path d="M75.9785 18.2112V25.0238H75.3777L75.2442 24.2891C74.7769 24.8234 74.1094 25.0906 73.3083 25.0906C71.8397 25.0906 70.7048 23.9552 70.7048 22.4858C70.7048 21.0164 71.7729 19.8809 73.3083 19.8809C74.0426 19.8809 74.7102 20.1481 75.1775 20.6156V18.2112H75.9785ZM75.2442 22.4858C75.2442 21.4171 74.4432 20.6156 73.3751 20.6156C72.307 20.6156 71.5727 21.4171 71.5727 22.4858C71.5727 23.5544 72.3737 24.3559 73.3751 24.3559C74.4432 24.3559 75.2442 23.5544 75.2442 22.4858Z" fill="#919191"/>
<path d="M80.2508 19.9476V20.6823H79.7167C78.7822 20.6823 78.3149 21.2835 78.3149 22.2185V24.9569H77.5138V19.9476H78.0478L78.1814 20.6823C78.5151 20.148 79.0492 19.8809 79.7835 19.8809H80.2508V19.9476Z" fill="#919191"/>
<path d="M81.1191 18.2109H81.987V19.146H81.1191V18.2109ZM81.1191 20.0143H81.9202V25.0236H81.1191V20.0143Z" fill="#919191"/>
<path d="M82.3203 26.0924H82.5873C83.2549 26.0924 83.5887 25.7585 83.5887 25.0906V20.0145H84.3897V25.1574C84.3897 26.1592 83.7222 26.8271 82.7208 26.8271H82.3203V26.0924ZM83.5887 18.2112H84.4565V19.1462H83.5887V18.2112Z" fill="#919191"/>
<path d="M88.6621 20.6824H87.1267V24.9569H86.3257V20.6824H85.3243V20.0145H86.3257V19.6137C86.3257 18.5451 86.793 18.0107 87.9278 18.0107H88.6621V18.6786H88.1281C87.3938 18.6786 87.1267 18.9458 87.1267 19.6805V20.0812H88.6621V20.6824Z" fill="#919191"/>
</svg>
