<svg width="85" height="45" viewBox="0 0 85 45" fill="none" xmlns="http://www.w3.org/2000/svg">
<path d="M83.8086 16.8004H19.5132C19.1724 16.8004 18.8965 16.521 18.8965 16.176V16.102C18.8965 15.7569 19.1724 15.4775 19.5132 15.4775H83.8086C84.1494 15.4775 84.4253 15.7569 84.4253 16.102V16.176C84.4253 16.521 84.1494 16.8004 83.8086 16.8004Z" fill="#909090"/>
<path d="M84.2187 33.2633H16.9683C16.6275 33.2633 16.3516 32.9839 16.3516 32.6389V32.5648C16.3516 32.2198 16.6275 31.9404 16.9683 31.9404H84.2197C84.5605 31.9404 84.8364 32.2198 84.8364 32.5648V32.6389C84.8354 32.9839 84.5594 33.2633 84.2187 33.2633Z" fill="#909090"/>
<path d="M20.898 29.6503C20.3973 29.4291 19.9677 29.1 19.7022 28.683C19.5277 28.41 19.4252 28.1581 19.3479 27.8279C19.2747 27.5157 19.2402 27.195 19.2402 26.8733V21.9129C19.2402 21.5467 19.2977 21.1816 19.42 20.8366C19.5005 20.608 19.605 20.3984 19.7378 20.1931C20.0033 19.7814 20.3963 19.4068 20.898 19.1856C21.3987 18.9644 21.9935 18.8533 22.6823 18.8533C23.3586 18.8533 23.9471 18.9644 24.4478 19.1856C24.9484 19.4068 25.3174 19.7677 25.5829 20.1709C25.8484 20.5741 25.9958 20.9985 25.9958 21.5393V21.6039C25.9958 22.0896 25.607 22.4833 25.1272 22.4833C24.6788 22.4833 24.3035 22.1373 24.2627 21.6854L24.2481 21.5266C24.2481 21.0747 23.9293 20.8313 23.669 20.5868C23.4088 20.3434 23.1046 20.2619 22.6813 20.2619C22.2349 20.2619 21.8848 20.2365 21.6308 20.4757C21.3768 20.7149 20.9137 21.0652 20.9137 21.5266V27.3104C20.9137 27.7718 21.3768 28.121 21.6308 28.3613C21.8848 28.6004 22.2339 28.5645 22.6813 28.5645C23.1161 28.5645 23.4443 28.5031 23.7046 28.2586C23.7067 28.2565 23.7098 28.2533 23.7119 28.2512C24.107 27.8787 24.3307 27.3548 24.3338 26.8076L24.3411 25.3821H22.9635C22.6029 25.3821 22.3112 25.0868 22.3112 24.7217C22.3112 24.3566 22.6029 24.0613 22.9635 24.0613H25.492C25.77 24.0613 25.9958 24.2899 25.9958 24.5714V26.9876C25.9958 27.3029 25.9529 27.6162 25.862 27.9178C25.7784 28.1951 25.6665 28.4301 25.5056 28.6745C25.2401 29.0778 24.9213 29.3593 24.4478 29.6514C23.9805 29.9382 23.3575 29.9837 22.6823 29.9837C21.9935 29.9826 21.3987 29.8715 20.898 29.6503Z" fill="#909090"/>
<path d="M32.394 27.4758H28.8547L28.1774 29.7184C28.1314 29.8708 27.9923 29.9745 27.8356 29.9745H27.3516C26.8655 29.9745 26.5154 29.5025 26.6502 29.0294L29.5425 19.4886C29.6554 19.1161 29.9951 18.8621 30.3797 18.8621H31.0194C31.4062 18.8621 31.7469 19.1182 31.8588 19.4928L34.6727 28.9468C34.8159 29.4622 34.4333 29.9734 33.9044 29.9734H33.341C33.202 29.9734 33.0797 29.8803 33.041 29.7448L32.394 27.4758ZM32.0219 26.1952L30.7059 21.1766H30.5846L29.2038 26.1952H32.0219Z" fill="#909090"/>
<path d="M36.9204 28.5552H41.3137C41.6367 28.5552 41.898 28.8198 41.898 29.1469V29.3278C41.898 29.6548 41.6367 29.9194 41.3137 29.9194H35.0619C34.833 29.9194 34.8173 29.2093 34.9271 29.0061L39.6256 20.3236H35.5783C35.294 20.3236 35.063 20.0897 35.063 19.8018V19.4346C35.063 19.1467 35.294 18.9128 35.5783 18.9128H41.1851C41.5949 18.9128 41.8551 19.3563 41.6597 19.7203L36.9204 28.5552ZM41.3137 29.9205H35.0619C34.833 29.9205 34.7024 29.404 34.9271 29.0072" fill="#909090"/>
<path d="M49.4764 29.082V29.372C49.4764 29.681 49.2286 29.9318 48.9234 29.9318H43.3856C43.1075 29.9318 42.8828 29.7043 42.8828 29.4228V19.4248C42.8828 19.1369 43.1128 18.9041 43.3971 18.9041H48.8921C49.215 18.9041 49.4774 19.1697 49.4774 19.4967V19.6989C49.4774 20.0259 49.215 20.2915 48.8921 20.2915H44.5291V23.7533H46.6897C47.044 23.7533 47.3315 24.0443 47.3315 24.4031C47.3315 24.7619 47.044 25.0529 46.6897 25.0529H44.5291V28.5232H48.9245C49.2286 28.5221 49.4764 28.7729 49.4764 29.082Z" fill="#909090"/>
<path d="M70.8192 29.082V29.372C70.8192 29.681 70.5715 29.9318 70.2663 29.9318H64.7274C64.4493 29.9318 64.2246 29.7043 64.2246 29.4228V19.4248C64.2246 19.1369 64.4546 18.9041 64.7389 18.9041H70.2338C70.5568 18.9041 70.8192 19.1697 70.8192 19.4967V19.6989C70.8192 20.0259 70.5568 20.2915 70.2338 20.2915H65.8709V23.7533H68.0315C68.3858 23.7533 68.6733 24.0443 68.6733 24.4031C68.6733 24.7619 68.3858 25.0529 68.0315 25.0529H65.8709V28.5232H70.2663C70.5715 28.5221 70.8192 28.7729 70.8192 29.082Z" fill="#909090"/>
<path d="M56.4301 29.1539V29.3085C56.4301 29.6524 56.1552 29.9307 55.8155 29.9307H50.9163C50.6592 29.9307 50.4512 29.7201 50.4512 29.4598V19.4861C50.4512 19.1644 50.7083 18.9041 51.0261 18.9041H51.5226C51.8403 18.9041 52.0975 19.1644 52.0975 19.4861V28.5306H55.8155C56.1542 28.5316 56.4301 28.81 56.4301 29.1539Z" fill="#909090"/>
<path d="M63.309 29.1539V29.3085C63.309 29.6524 63.0341 29.9307 62.6944 29.9307H57.7952C57.5381 29.9307 57.3301 29.7201 57.3301 29.4598V19.4861C57.3301 19.1644 57.5872 18.9041 57.905 18.9041H58.4015C58.7192 18.9041 58.9764 19.1644 58.9764 19.4861V28.5306H62.6944C63.0341 28.5316 63.309 28.81 63.309 29.1539Z" fill="#909090"/>
<path d="M72.2631 18.8934H72.7711C73.1182 18.8934 73.4349 19.0913 73.5896 19.4046L76.9459 26.1747H77.0546L77.0254 19.521C77.0243 19.1738 77.3013 18.8923 77.6431 18.8923H78.034C78.3748 18.8923 78.6518 19.1728 78.6518 19.5178V29.4671C78.6518 29.7285 78.4417 29.9413 78.1835 29.9413H77.6358C77.3557 29.9413 77.0985 29.7825 76.971 29.5306L73.4746 22.642H73.3659L73.3952 29.2279C73.3972 29.6216 73.0826 29.9413 72.6938 29.9413H72.4084C72.0196 29.9413 71.705 29.6206 71.707 29.2269L71.7656 19.3929C71.7677 19.1167 71.9893 18.8934 72.2631 18.8934Z" fill="#909090"/>
<path d="M26.1446 43.1489V44.5713H20.3748V43.3902C23.221 40.629 23.7687 40.6777 24.1105 39.4172C24.2297 38.7409 23.8628 38.2668 22.7872 38.3007C22.251 38.3176 21.7127 38.7039 21.3301 39.0658L20.0664 38.2266C20.9758 37.2318 21.5779 36.7852 23.0851 36.7852C24.721 36.7852 25.8708 37.7736 25.8718 39.2923C25.8718 40.6787 23.9924 42.0874 22.8928 43.1489H26.1446Z" fill="#909090"/>
<path d="M26.7988 40.6412C26.7988 38.0282 28.1096 36.7148 30.0214 36.7148C31.9332 36.7148 33.2439 38.0399 33.2439 40.6412C33.2439 43.2542 31.9332 44.6396 30.0214 44.6396C28.1096 44.6396 26.7988 43.2542 26.7988 40.6412ZM31.4921 40.6412C31.4921 38.6177 30.5681 38.1711 30.0214 38.1711C29.4747 38.1711 28.5946 38.6177 28.5946 40.6412C28.5946 42.6647 29.4758 43.05 30.0214 43.05C30.567 43.05 31.4921 42.6647 31.4921 40.6412Z" fill="#909090"/>
<path d="M39.7423 43.1489V44.5713H33.9724V43.3902C36.8187 40.629 37.3664 40.6777 37.7082 39.4172C37.8274 38.7409 37.4605 38.2668 36.3849 38.3007C35.8487 38.3176 35.3104 38.7039 34.9278 39.0658L33.6641 38.2266C34.5734 37.2318 35.1755 36.7852 36.6828 36.7852C38.3186 36.7852 39.4684 37.7736 39.4695 39.2923C39.4695 40.6787 37.5901 42.0874 36.4905 43.1489H39.7423Z" fill="#909090"/>
<path d="M40.3965 40.6412C40.3965 38.0282 41.7073 36.7148 43.619 36.7148C45.5308 36.7148 46.8416 38.0399 46.8416 40.6412C46.8416 43.2542 45.5308 44.6396 43.619 44.6396C41.7073 44.6396 40.3965 43.2542 40.3965 40.6412ZM45.0897 40.6412C45.0897 38.6177 44.1657 38.1711 43.619 38.1711C43.0724 38.1711 42.1923 38.6177 42.1923 40.6412C42.1923 42.6647 43.0734 43.05 43.619 43.05C44.1657 43.05 45.0897 42.6647 45.0897 40.6412Z" fill="#909090"/>
<path d="M4.6554 31.6252C6.00589 28.9445 10.2319 29.9192 11.3148 31.9639C12.2336 33.6974 12.2911 37.1243 9.33193 38.226C7.62501 38.861 5.70276 38.5445 4.28747 37.3878C2.15408 35.6447 0.807772 31.9776 1.53319 26.3854C1.83422 24.7196 3.61222 20.1307 9.657 18.8311C8.641 17.4098 7.54452 15.6635 7.36996 14.1332C6.06651 14.5385 4.72439 14.2115 4.22893 13.313C4.13381 13.1405 4.28433 12.9373 4.47562 12.9786C5.34946 13.1669 6.67904 12.6939 6.5766 11.9266C6.43445 11.1053 1.44539 9.13472 0.168069 8.67118C0.0572706 8.63096 0.0489083 8.47539 0.155526 8.42353C0.617534 8.19916 1.1339 8.32193 1.1339 8.32193C1.1339 8.32193 5.69858 9.45963 7.98876 10.6958C7.89991 10.0015 3.8819 8.42247 3.11363 8.12614C2.99865 8.08169 2.89622 8.00761 2.822 7.90813C2.71329 7.76102 2.67566 7.57581 3.21607 7.60333C3.39481 7.61179 3.57146 7.64143 3.74393 7.68799C5.16236 8.06687 8.17482 9.22151 9.49081 10.0512C9.59742 10.1179 9.71659 10.1602 9.84097 10.1751C12.198 10.4481 11.6911 11.1265 14.2133 11.2387C14.5656 11.2545 14.9001 11.4059 15.1426 11.6652C15.7687 12.3351 15.8837 13.2484 15.3338 13.5479C15.2199 13.6104 15.0903 13.6347 14.9607 13.6273C11.781 13.44 11.989 15.4106 13.4346 16.4097C14.5886 17.0743 15.7781 17.4701 16.3049 18.2638C16.4042 18.4141 16.4554 18.5919 16.4523 18.7718L16.2788 27.3125C15.3244 28.2057 13.9436 28.5042 12.775 28.2788L13.051 24.5778C9.68314 24.3407 4.26761 24.382 4.6554 31.6252Z" fill="#909090"/>
<path d="M20.7274 6.30687H19.3278C19.2745 6.30687 19.2306 6.26242 19.2306 6.20845V4.82098C19.2306 4.76701 19.2745 4.72256 19.3278 4.72256H20.7274V4.03253C20.7274 3.51924 20.8539 3.01336 21.1079 2.56887C22.1688 0.71468 24.9952 -0.117164 26.8088 1.28618C27.3764 1.72538 27.7244 2.40059 27.7244 3.12343C27.7255 4.531 26.4586 4.74372 25.705 4.47173C25.4144 4.36696 25.1938 4.12355 25.105 3.82404C24.8907 3.09803 25.1332 2.47785 25.8983 2.12649C25.4018 1.67352 24.0378 1.76877 23.6876 2.83133C23.6385 2.98161 23.6165 3.1393 23.6165 3.29699V4.76383H25.2848C25.3381 4.76383 25.382 4.80828 25.382 4.86226V6.20951C25.382 6.26348 25.3381 6.30793 25.2848 6.30793H23.5946V11.0154C23.5946 11.1932 23.7367 11.3382 23.9134 11.3382H25.0172C25.0705 11.3382 25.1144 11.3826 25.1144 11.4366V13.0473C25.1144 13.1013 25.0705 13.1458 25.0172 13.1458H19.3278C19.2745 13.1458 19.2306 13.1013 19.2306 13.0473V11.4366C19.2306 11.3826 19.2745 11.3382 19.3278 11.3382H20.4222C20.5988 11.3382 20.741 11.1932 20.741 11.0143L20.7274 6.30687Z" fill="#909090"/>
<path d="M38.0045 13.4682C38.7059 13.4682 39.2745 12.8925 39.2745 12.1824C39.2745 11.4722 38.7059 10.8965 38.0045 10.8965C37.3031 10.8965 36.7345 11.4722 36.7345 12.1824C36.7345 12.8925 37.3031 13.4682 38.0045 13.4682Z" fill="#909090"/>
<path d="M36.0248 11.487L35.0422 11.4796C34.7726 11.4775 34.5551 11.2553 34.5551 10.9822V0.830768C34.5551 0.769385 34.506 0.720703 34.4464 0.720703H30.3459C30.2852 0.720703 30.2371 0.770444 30.2371 0.830768V2.21612C30.2371 2.2775 30.2863 2.32618 30.3459 2.32618H31.8145V5.9954C30.5978 3.26068 25.8104 4.08618 25.6505 8.67614C25.6505 14.5657 30.8925 14.2948 31.7392 11.8575V13.083C31.7392 13.1783 31.8165 13.2555 31.9106 13.2544L36.0258 13.2132C36.0854 13.2121 36.1335 13.1634 36.1335 13.1031V11.5971C36.1325 11.5368 36.0844 11.487 36.0248 11.487ZM31.7329 9.33759C31.7329 10.2128 31.4967 11.8977 30.1682 11.8977C28.9912 11.8977 28.7111 10.616 28.7111 9.80114V8.1819C28.7111 7.29185 29.1699 6.08324 30.303 6.08324C30.904 6.08324 31.2615 6.45577 31.4685 6.92884C31.6754 7.40191 31.7329 7.97446 31.7329 8.37451V9.33759Z" fill="#909090"/>
</svg>
