<svg width="85" height="45" viewBox="0 0 85 45" fill="none" xmlns="http://www.w3.org/2000/svg">
<path d="M83.7948 16.8143H19.5391C19.1774 16.8143 18.8848 16.518 18.8848 16.1518C18.8848 15.7856 19.1774 15.4893 19.5391 15.4893H83.7948C84.1565 15.4893 84.4492 15.7856 84.4492 16.1518C84.4492 16.518 84.1565 16.8143 83.7948 16.8143Z" fill="#909090"/>
<path d="M84.2051 33.286H16.9903C16.6286 33.286 16.3359 32.9896 16.3359 32.6234C16.3359 32.2573 16.6286 31.9609 16.9903 31.9609H84.2051C84.5668 31.9609 84.8595 32.2573 84.8595 32.6234C84.8595 32.9896 84.5668 33.286 84.2051 33.286Z" fill="#909090"/>
<path d="M20.8893 29.6705C20.3876 29.4493 19.958 29.1191 19.6925 28.7021C19.5179 28.4291 19.4155 28.1772 19.3381 27.847C19.265 27.5348 19.2305 27.2131 19.2305 26.8924V21.9299C19.2305 21.5637 19.288 21.1986 19.4103 20.8536C19.4918 20.625 19.5953 20.4154 19.728 20.2091C19.9935 19.7963 20.3876 19.4227 20.8893 19.2005C21.39 18.9793 21.9858 18.8682 22.6736 18.8682C23.3499 18.8682 23.9384 18.9793 24.4401 19.2005C24.9408 19.4227 25.3097 19.7826 25.5752 20.1868C25.8407 20.5901 25.9892 21.0144 25.9892 21.5553V21.6198C25.9892 22.1056 25.6003 22.4993 25.1205 22.4993C24.6721 22.4993 24.2969 22.1532 24.2551 21.7002L24.2404 21.5415C24.2404 21.0896 23.9216 20.8451 23.6614 20.6017C23.4011 20.3583 23.0959 20.2768 22.6736 20.2768C22.2262 20.2768 21.876 20.2514 21.6231 20.4906C21.3691 20.7298 20.906 21.0801 20.906 21.5415V27.3284C20.906 27.7898 21.3701 28.1402 21.6231 28.3793C21.8771 28.6185 22.2272 28.5836 22.6736 28.5836C23.1084 28.5836 23.4377 28.5222 23.6969 28.2777C23.699 28.2756 23.7021 28.2724 23.7042 28.2703C24.0993 27.8967 24.323 27.3739 24.3261 26.8257L24.3335 25.3991H22.9548C22.5941 25.3991 22.3025 25.1028 22.3025 24.7387C22.3025 24.3736 22.5952 24.0783 22.9548 24.0783H25.4843C25.7623 24.0783 25.9881 24.3069 25.9881 24.5884V27.0056C25.9881 27.321 25.9453 27.6353 25.8543 27.9359C25.7707 28.2132 25.6589 28.4481 25.4979 28.6926C25.2324 29.0958 24.9136 29.3784 24.439 29.6694C23.9708 29.9562 23.3488 30.0017 22.6725 30.0017C21.9858 30.0039 21.39 29.8927 20.8893 29.6705Z" fill="#909090"/>
<path d="M32.3926 27.496H28.8513L28.1729 29.7396C28.1269 29.892 27.9879 29.9957 27.8311 29.9957H27.3461C26.86 29.9957 26.5088 29.5237 26.6447 29.0506L29.539 19.5045C29.6519 19.132 29.9916 18.877 30.3774 18.877H31.0171C31.4038 18.877 31.7446 19.1331 31.8564 19.5088L34.6713 28.9681C34.8145 29.4835 34.4319 29.9957 33.903 29.9957H33.3396C33.2006 29.9957 33.0783 29.9026 33.0396 29.7671L32.3926 27.496ZM32.0205 26.2143L30.7045 21.1936H30.5833L29.2014 26.2143H32.0205Z" fill="#909090"/>
<path d="M36.9215 28.5751H41.3179C41.6408 28.5751 41.9032 28.8407 41.9032 29.1678V29.3498C41.9032 29.6768 41.6408 29.9425 41.3179 29.9425H35.0619C34.833 29.9425 34.8173 29.2323 34.9271 29.0291L39.6287 20.3424H35.5793C35.295 20.3424 35.064 20.1085 35.064 19.8206V19.4534C35.064 19.1655 35.295 18.9316 35.5793 18.9316H41.1893C41.599 18.9316 41.8593 19.3751 41.6638 19.7391L36.9215 28.5751ZM41.3179 29.9414H35.0619C34.833 29.9414 34.7024 29.4249 34.9271 29.0281" fill="#909090"/>
<path d="M49.4836 29.1022V29.3921C49.4836 29.7012 49.2359 29.952 48.9307 29.952H43.3897C43.1117 29.952 42.887 29.7234 42.887 29.4429V19.4396C42.887 19.1518 43.1169 18.9189 43.4012 18.9189H48.8993C49.2223 18.9189 49.4847 19.1846 49.4847 19.5116V19.7137C49.4847 20.0408 49.2223 20.3064 48.8993 20.3064H44.5343V23.7692H46.6959C47.0503 23.7692 47.3377 24.0603 47.3377 24.4191C47.3377 24.7778 47.0503 25.0689 46.6959 25.0689H44.5343V28.5402H48.9317C49.2359 28.5423 49.4836 28.7931 49.4836 29.1022Z" fill="#909090"/>
<path d="M70.835 29.1022V29.3921C70.835 29.7012 70.5872 29.952 70.282 29.952H64.7411C64.463 29.952 64.2383 29.7234 64.2383 29.4429V19.4396C64.2383 19.1518 64.4682 18.9189 64.7526 18.9189H70.2507C70.5736 18.9189 70.836 19.1846 70.836 19.5116V19.7137C70.836 20.0408 70.5736 20.3064 70.2507 20.3064H65.8856V23.7692H68.0472C68.4016 23.7692 68.689 24.0603 68.689 24.4191C68.689 24.7778 68.4016 25.0689 68.0472 25.0689H65.8856V28.5402H70.2831C70.5872 28.5423 70.835 28.7931 70.835 29.1022Z" fill="#909090"/>
<path d="M56.4401 29.174V29.3286C56.4401 29.6725 56.1642 29.9519 55.8245 29.9519H50.9222C50.665 29.9519 50.457 29.7413 50.457 29.4809V19.502C50.457 19.1803 50.7142 18.9199 51.0319 18.9199H51.5284C51.8462 18.9199 52.1033 19.1803 52.1033 19.502V28.5517H55.8234C56.1642 28.5517 56.4401 28.8301 56.4401 29.174Z" fill="#909090"/>
<path d="M63.3249 29.174V29.3286C63.3249 29.6725 63.049 29.9519 62.7092 29.9519H57.8069C57.5498 29.9519 57.3418 29.7413 57.3418 29.4809V19.502C57.3418 19.1803 57.5989 18.9199 57.9167 18.9199H58.4132C58.731 18.9199 58.9881 19.1803 58.9881 19.502V28.5517H62.7082C63.05 28.5517 63.3249 28.8301 63.3249 29.174Z" fill="#909090"/>
<path d="M72.2847 18.9082H72.7927C73.1398 18.9082 73.4565 19.1061 73.6122 19.4204L76.9707 26.1948H77.0794L77.0501 19.5379C77.0491 19.1908 77.3261 18.9093 77.6679 18.9093H78.0588C78.4006 18.9093 78.6766 19.1897 78.6766 19.5347V29.4893C78.6766 29.7518 78.4665 29.9635 78.2083 29.9635H77.6595C77.3794 29.9635 77.1222 29.8047 76.9937 29.5518L73.4952 22.66H73.3865L73.4157 29.2502C73.4178 29.6439 73.1032 29.9635 72.7144 29.9635H72.4279C72.0391 29.9635 71.7245 29.6428 71.7266 29.2491L71.7851 19.4099C71.7882 19.1315 72.0109 18.9082 72.2847 18.9082Z" fill="#909090"/>
<path d="M4.6351 31.6467C5.98663 28.9649 10.2137 29.9397 11.2976 31.9854C12.2164 33.72 12.275 37.149 9.31371 38.2507C7.60575 38.8867 5.68246 38.5692 4.26716 37.4125C2.13273 35.6684 0.78538 31.9992 1.5108 26.4038C1.81183 24.738 3.59088 20.1459 9.63879 18.8452C8.62175 17.4228 7.52526 15.6755 7.3507 14.1441C6.04725 14.5495 4.70409 14.2225 4.20758 13.3229C4.11247 13.1504 4.26298 12.9472 4.45427 12.9885C5.32811 13.1768 6.65874 12.7038 6.5563 11.9365C6.41414 11.1152 1.42299 9.1425 0.144631 8.67896C0.033833 8.63874 0.0254709 8.48211 0.132088 8.43025C0.594096 8.20483 1.1115 8.32865 1.1115 8.32865C1.1115 8.32865 5.67828 9.46635 7.97055 10.7035C7.8817 10.0093 3.8616 8.42919 3.09333 8.13286C2.97835 8.08841 2.87487 8.01433 2.8017 7.91485C2.69299 7.76774 2.65536 7.58253 3.19577 7.60899C3.37451 7.61746 3.55116 7.64709 3.72363 7.69366C5.1431 8.07254 8.15765 9.22823 9.47364 10.059C9.58026 10.1257 9.69942 10.168 9.82485 10.1828C12.183 10.4559 11.676 11.1353 14.1993 11.2465C14.5515 11.2623 14.8871 11.4137 15.1296 11.673C15.7567 12.3429 15.8707 13.2573 15.3209 13.5568C15.2069 13.6192 15.0773 13.6436 14.9477 13.6362C11.7659 13.4488 11.975 15.4205 13.4206 16.4206C14.5745 17.0863 15.7651 17.4821 16.2919 18.2759C16.3912 18.4261 16.4435 18.6039 16.4393 18.7849L16.2658 27.3298C15.3115 28.2241 13.9286 28.5215 12.76 28.2961L13.037 24.593C9.66597 24.3591 4.2473 24.4004 4.6351 31.6467Z" fill="#909090"/>
<path d="M20.7147 6.31527H19.314C19.2607 6.31527 19.2168 6.27082 19.2168 6.21685V4.82833C19.2168 4.77435 19.2607 4.7299 19.314 4.7299H20.7147V4.03987C20.7147 3.52659 20.8411 3.01965 21.0951 2.57621C22.1561 0.720965 24.9846 -0.111937 26.7992 1.29246C27.3667 1.73167 27.7159 2.40794 27.7159 3.13077C27.7169 4.5394 26.45 4.75213 25.6954 4.48014C25.4048 4.37536 25.1832 4.13089 25.0954 3.83138C24.8811 3.10537 25.1236 2.48519 25.8887 2.13277C25.3922 1.67981 24.0271 1.77506 23.677 2.83867C23.6278 2.98896 23.6059 3.14665 23.6059 3.3054V4.77012H25.2752C25.3285 4.77012 25.3724 4.81457 25.3724 4.86854V6.21685C25.3724 6.27082 25.3285 6.31527 25.2752 6.31527H23.5839V11.0248C23.5839 11.2026 23.7271 11.3476 23.9027 11.3476H25.0076C25.0609 11.3476 25.1048 11.3921 25.1048 11.446V13.0579C25.1048 13.1118 25.0609 13.1563 25.0076 13.1563H19.3151C19.2617 13.1563 19.2178 13.1118 19.2178 13.0579V11.446C19.2178 11.3921 19.2617 11.3476 19.3151 11.3476H20.4105C20.5871 11.3476 20.7293 11.2026 20.7293 11.0238L20.7147 6.31527Z" fill="#909090"/>
<path d="M38.0015 13.4811C38.7035 13.4811 39.2726 12.9049 39.2726 12.1942C39.2726 11.4834 38.7035 10.9072 38.0015 10.9072C37.2995 10.9072 36.7305 11.4834 36.7305 12.1942C36.7305 12.9049 37.2995 13.4811 38.0015 13.4811Z" fill="#909090"/>
<path d="M36.0212 11.4983L35.0386 11.4909C34.7689 11.4888 34.5515 11.2665 34.5515 10.9935V0.835652C34.5515 0.774269 34.5024 0.725586 34.4428 0.725586H30.3391C30.2785 0.725586 30.2304 0.775327 30.2304 0.835652V2.22206C30.2304 2.28344 30.2795 2.33212 30.3391 2.33212H31.8087V6.00346C30.591 3.26663 25.8016 4.09318 25.6406 8.68525C25.6406 14.578 30.8847 14.3071 31.7324 11.8687V13.0953C31.7324 13.1905 31.8098 13.2678 31.9039 13.2667L36.0212 13.2255C36.0808 13.2244 36.1288 13.1757 36.1288 13.1154V11.6094C36.1299 11.548 36.0808 11.4993 36.0212 11.4983ZM31.7283 9.34882C31.7283 10.2241 31.492 11.911 30.1625 11.911C28.9855 11.911 28.7043 10.6283 28.7043 9.81237V8.19207C28.7043 7.30096 29.1632 6.09236 30.2973 6.09236C30.8983 6.09236 31.2568 6.46488 31.4638 6.93796C31.6708 7.41103 31.7283 7.98358 31.7283 8.38363V9.34882Z" fill="#909090"/>
<path d="M26.1373 43.1424V44.5659H20.3643V43.3837C23.2116 40.6205 23.7603 40.6691 24.1021 39.4087C24.2213 38.7313 23.8544 38.2572 22.7778 38.2911C22.2405 38.308 21.7033 38.6943 21.3196 39.0562L20.0549 38.2159C20.9643 37.2201 21.5663 36.7734 23.0757 36.7734C24.7126 36.7734 25.8634 37.763 25.8634 39.2827C25.8634 40.6702 23.983 42.0799 22.8834 43.1414L26.1373 43.1424Z" fill="#909090"/>
<path d="M26.7912 40.6336C26.7912 38.0185 28.103 36.7051 30.0158 36.7051C31.9287 36.7051 33.2405 38.0301 33.2405 40.6336C33.2405 43.2487 31.9287 44.6341 30.0158 44.6341C28.102 44.6351 26.7912 43.2487 26.7912 40.6336ZM31.4865 40.6336C31.4865 38.609 30.5615 38.1624 30.0148 38.1624C29.4681 38.1624 28.587 38.609 28.587 40.6336C28.587 42.6582 29.4681 43.0434 30.0148 43.0434C30.5615 43.0444 31.4865 42.6582 31.4865 40.6336Z" fill="#909090"/>
<path d="M39.7428 43.1424V44.5659H33.9698V43.3837C36.8171 40.6205 37.3659 40.6691 37.7077 39.4087C37.8268 38.7313 37.4599 38.2572 36.3833 38.2911C35.8461 38.308 35.3088 38.6943 34.9252 39.0562L33.6604 38.2159C34.5698 37.2201 35.1719 36.7734 36.6812 36.7734C38.3181 36.7734 39.469 37.763 39.469 39.2827C39.469 40.6702 37.5885 42.0799 36.4889 43.1414L39.7428 43.1424Z" fill="#909090"/>
<path d="M43.6684 36.7734V44.5659H41.8924V38.2604H40.3381V36.7734H43.6684Z" fill="#909090"/>
</svg>
