<svg width="99" height="32" viewBox="0 0 99 32" fill="none" xmlns="http://www.w3.org/2000/svg">
<path d="M14.4126 29.6357C13.0107 29.5021 11.6088 29.1014 10.3405 28.5003C9.53941 28.0328 8.67159 27.4984 7.93728 26.9641C9.47266 28.0995 11.1415 28.8342 12.944 29.3018C14.8131 29.7693 16.6823 29.7693 18.5514 29.4354C17.1496 29.7025 15.7477 29.8361 14.4126 29.6357ZM30.4339 12.337C30.4339 12.0699 30.4339 11.8695 30.3672 11.6691C29.8999 9.66541 29.0988 7.79528 27.8972 6.12552C25.2937 2.71921 21.3552 0.581919 17.0828 0.314757C14.9466 0.181177 12.8104 0.515128 10.8078 1.31661L10.741 1.24982C10.4072 1.3834 10.1402 1.45019 9.80643 1.58377C9.00537 2.05131 8.13754 2.58563 7.40323 3.11995C6.00136 4.1886 4.79976 5.45761 3.79842 6.927C3.99869 6.65984 4.19896 6.32589 4.39922 6.12552C4.59949 5.85836 4.86651 5.59119 5.06678 5.32403C5.53407 4.78971 6.06812 4.32218 6.53541 3.85465C6.66892 3.78786 6.80243 3.58748 6.93594 3.52069C7.0027 3.4539 7.0027 3.38711 7.0027 3.32032C6.73567 3.38711 6.46865 3.52069 6.20163 3.78786C4.66625 5.05687 3.39789 6.59305 2.53007 8.3296C1.66224 9.99936 1.19495 11.8027 1.06144 13.606C0.46064 17.8806 1.52873 22.1552 4.1322 25.5615C6.66892 28.9678 10.474 31.1719 14.6796 31.9066C14.8131 31.9734 14.9466 31.9734 15.1469 31.9066C15.2136 31.9066 15.2136 31.8398 15.0801 31.8398C12.8772 31.5059 10.8078 30.7044 8.93861 29.5689C7.06945 28.4335 5.40056 26.7637 4.1322 24.9604C2.86384 23.0903 1.99602 20.953 1.66224 18.6821C1.46197 17.5467 1.39522 16.4112 1.46197 15.2758C1.46197 15.0086 1.52873 14.6747 1.52873 14.4075C1.59549 14.1404 1.59549 13.8064 1.59549 13.5392C1.66224 12.9381 1.86251 12.4038 1.99602 11.8695L2.06278 11.4687L2.19629 11.068C2.26304 10.8008 2.39655 10.5337 2.46331 10.2665C1.92926 11.8027 1.66224 13.4057 1.66224 15.0754C1.59549 15.3426 1.59549 15.6097 1.59549 15.8769C1.59549 16.6784 1.66224 17.4131 1.729 18.2146C1.729 18.1478 1.66224 18.1478 1.66224 18.1478C1.59549 18.3482 1.59549 18.6153 1.66224 18.8157C2.06278 20.8194 2.86384 22.6895 4.06545 24.2925C4.1322 24.2925 4.1322 24.3593 4.19896 24.3593C7.13621 28.6339 12.1429 31.0383 17.3498 30.6376C19.2857 30.504 21.2217 30.0365 22.8905 29.1014C23.1576 28.9678 23.4913 28.8342 23.7584 28.6339C23.8919 28.5671 24.0254 28.5003 24.2257 28.3667C24.3592 28.2999 24.4927 28.1663 24.6262 28.0995C26.8291 26.6302 28.5648 24.6264 29.7664 22.2888C29.8331 22.1552 29.8999 22.0216 29.9666 21.8213C30.0334 21.6877 29.9666 21.7545 29.8999 21.8213C29.8331 21.8213 29.8331 21.7545 29.8331 21.7545C28.8318 23.491 27.6302 25.0272 26.1616 26.2294C24.6929 27.4984 23.0241 28.5003 21.2217 29.1014C19.9533 29.5689 18.6182 29.9029 17.2831 29.9697C18.5514 29.7693 19.8198 29.3686 20.9546 28.7674C22.5568 28.1663 24.0921 27.2313 25.3605 26.1626C26.6289 25.0272 27.6302 23.6246 28.3645 22.0884L28.2978 22.222C28.4313 22.0884 28.498 21.888 28.4313 21.6209C28.4313 21.5541 28.3645 21.6209 28.3645 21.6877C28.2978 21.7545 28.231 21.888 28.1642 22.0216C26.9626 24.0253 25.3605 25.6951 23.4246 26.8973C22.8238 27.2981 22.0895 27.632 21.4219 27.8992C18.6182 29.0346 15.4807 29.235 12.5434 28.4335C9.60617 27.632 7.06945 25.8287 5.3338 23.3574C3.66491 20.953 2.79709 17.8806 3.06411 14.8751C3.39789 10.1329 6.33514 5.92515 10.6743 3.85465C10.9413 3.72107 11.2083 3.58748 11.4753 3.38711C11.6088 3.32032 11.7423 3.25353 11.7423 3.11995C11.6756 2.98637 11.0748 3.05316 10.4072 3.38711C8.2043 4.38897 6.33514 5.99194 4.93327 7.92886C3.5314 9.93257 2.66358 12.2034 2.46331 14.6747C2.39655 15.7433 2.39655 16.812 2.53007 17.8806C2.66358 18.9493 2.99736 19.9511 3.33113 21.0198C2.66358 19.4836 2.26304 17.8138 2.12953 16.1441C2.12953 15.543 2.19629 14.8083 2.19629 14.2071C2.3298 12.8713 2.66358 11.6023 3.19762 10.4001C3.46465 9.79899 3.73167 9.19787 4.06545 8.59676C4.86651 7.26095 5.86785 5.99194 7.0027 4.92329C8.2043 3.92144 9.53941 3.05316 10.9413 2.51884C12.4099 1.91773 13.9453 1.65056 15.5474 1.58377C17.1496 1.51698 18.7517 1.85094 20.2871 2.38526C21.6222 2.91958 22.9573 3.72107 24.0254 4.65613C24.4927 5.12366 25.0267 5.59119 25.4273 6.12552C25.8278 6.59305 26.2283 7.19416 26.5621 7.72849C26.8291 8.26281 27.1629 8.86392 27.3632 9.39824C27.6302 9.99936 27.8305 10.5337 27.964 11.2016C28.0975 11.8027 28.231 12.4038 28.2978 13.0717C28.3645 13.6728 28.3645 14.3407 28.3645 14.9418C28.3645 15.1422 28.3645 15.3426 28.4313 15.543C28.498 15.6097 28.498 15.6097 28.498 15.543C28.5648 15.4762 28.5648 15.4094 28.5648 15.2758C28.8318 12.671 28.231 10.0661 26.9626 7.79528C26.6289 7.19416 26.2951 6.65984 25.8278 6.12552C25.6275 5.85836 25.3605 5.59119 25.1602 5.32403C24.8932 5.05687 24.6929 4.8565 24.4259 4.58934C23.8919 4.12181 23.2911 3.65427 22.6903 3.25353C22.0895 2.786 21.3552 2.45205 20.6876 2.18489C19.1522 1.58377 17.5501 1.18303 15.8812 1.18303C14.2123 1.11624 12.5434 1.45019 11.0748 1.98452C9.53941 2.58563 8.13754 3.38711 6.86918 4.45576C5.60083 5.59119 4.53274 6.86021 3.73167 8.3296C3.5314 8.73034 3.26438 9.13108 3.13087 9.53183C3.39789 8.86392 3.73167 8.19602 4.06545 7.52811C4.46598 6.927 4.86651 6.2591 5.26705 5.65799C7.13621 3.4539 9.67292 1.91773 12.5434 1.18303C15.4139 0.381548 18.4179 0.581919 21.1549 1.65056C22.223 2.05131 23.2243 2.58563 24.1589 3.25353C25.0935 3.85465 25.8946 4.65613 26.6289 5.5244C27.3632 6.39268 27.964 7.26095 28.498 8.26281C29.0321 9.26466 29.4994 10.2665 29.7664 11.402C29.8331 11.6691 29.8999 11.8695 30.0334 12.1366C30.1002 12.2702 30.1002 12.4038 30.3004 12.5374C30.3672 12.6042 30.4339 12.5374 30.4339 12.337Z" fill="#909090"/>
<path d="M14.8118 28.2996C14.8786 28.2996 15.0121 28.2996 14.9453 28.2328C14.8786 28.166 14.8118 28.166 14.7451 28.166C13.8105 28.0992 12.8759 27.8989 12.0081 27.6317C11.207 27.3645 10.3392 26.897 9.60487 26.3627C9.53812 26.2959 9.47136 26.2959 9.4046 26.2959C9.33785 26.2959 9.4046 26.3627 9.47136 26.3627C10.2057 26.9638 11.0067 27.3645 11.9413 27.6985C12.8091 28.0992 13.8105 28.2996 14.8118 28.2996Z" fill="#909090"/>
<path d="M8.53645 25.6284C8.60321 25.6951 8.66996 25.6952 8.73672 25.7619C8.80347 25.7619 8.73672 25.6951 8.66996 25.6951C6.46702 23.7582 4.9984 21.1534 4.3976 18.2814C4.13057 16.7452 4.13057 15.2091 4.33084 13.8065C4.59786 12.3371 5.06515 10.9345 5.86622 9.59867C6.66729 8.26287 7.73538 6.99385 8.93698 6.12558C10.2053 5.12372 11.6072 4.45582 13.1426 4.05507C14.678 3.65433 16.2801 3.58754 17.8155 3.8547C19.3509 4.12187 20.7527 4.72298 22.0211 5.65804C22.0879 5.72483 22.2214 5.79162 22.2881 5.79162C22.3549 5.79162 22.2881 5.72483 22.2214 5.65804C21.0198 4.72298 19.5511 4.05507 18.0158 3.78791C17.4817 3.58754 16.8142 3.52075 16.2134 3.52075C15.9463 3.52075 15.6126 3.52075 15.2788 3.52075C15.0118 3.58754 14.678 3.58754 14.3442 3.58754C14.0772 3.65433 13.7434 3.65433 13.4096 3.72112C13.1426 3.78791 12.8088 3.8547 12.5418 3.98828C11.941 4.18866 11.4069 4.38903 10.8061 4.65619C8.73672 5.72483 6.93431 7.46138 5.66596 9.53188C4.93164 10.8677 4.46435 12.2703 4.19733 13.7397C3.93031 15.2091 3.99706 16.6785 4.26409 18.1478C4.93164 21.0198 6.33351 23.6246 8.53645 25.6284Z" fill="#909090"/>
<path d="M13.1421 3.78778C13.2089 3.78778 13.2757 3.72099 13.3424 3.72099C13.2757 3.6542 13.2089 3.6542 13.1421 3.72099C12.5413 3.85457 11.8738 4.05494 11.273 4.3221C10.6722 4.58927 10.0714 4.85643 9.53734 5.25717C9.00329 5.59112 8.46925 5.99186 8.00196 6.39261C7.53467 6.86014 7.06738 7.32767 6.66684 7.7952C4.99795 9.8657 4.06337 12.4037 3.86311 15.0754C3.79635 16.4779 3.86311 17.9473 4.19688 19.3499C4.59742 20.7525 5.19822 22.0883 6.06604 23.2238C6.1328 23.2906 6.1328 23.2906 6.19955 23.2906C6.19955 23.2238 6.1328 23.157 6.1328 23.0902C5.73226 22.5559 5.39849 22.0215 5.13146 21.4204C4.86444 20.8193 4.59742 20.285 4.46391 19.6171C4.26364 19.016 4.19688 18.4149 4.13013 17.747C4.06337 17.1459 4.06337 16.4112 4.06337 15.81C3.99662 14.8082 4.13013 13.8063 4.3304 12.8713C4.53066 11.9362 4.79769 11.0011 5.19822 10.1329C5.532 9.33138 5.99929 8.5299 6.53333 7.86199C7.06738 7.19409 7.73493 6.52619 8.40249 5.99186C9.7376 4.92322 11.3397 4.18852 13.1421 3.78778Z" fill="#909090"/>
<path d="M0.593358 14.2071C0.660114 14.0736 0.593358 13.94 0.526603 13.8064C0.459847 13.94 0.393091 14.0736 0.459847 14.2739C0.393091 15.5429 0.393091 16.812 0.593358 18.0142C0.793625 19.2832 1.1274 20.4854 1.59469 21.6877C2.52927 23.9585 3.86439 26.029 5.53328 27.7656C5.60003 27.8324 5.73355 27.8992 5.8003 28.0327C5.86706 28.0995 5.86706 28.0327 5.8003 27.966C4.99923 27.0977 4.26492 26.1626 3.53061 25.1608C2.86305 24.0921 2.19549 22.9567 1.79496 21.8212C1.32767 20.619 0.993892 19.4168 0.793625 18.081C0.526603 16.812 0.459847 15.4762 0.593358 14.2071Z" fill="#909090"/>
<path d="M15.6799 28.8346C16.8815 28.8346 17.9496 28.701 19.0844 28.3671C19.6184 28.1667 20.1525 27.9663 20.6198 27.7659C21.0871 27.5656 21.6211 27.2984 22.1552 26.9645C24.8254 25.6287 26.8948 23.3578 28.0297 20.6194C28.4302 19.9515 28.764 19.15 29.031 18.4153C29.298 17.6138 29.4983 16.8791 29.6318 16.0108C29.6318 15.9441 29.6318 15.8105 29.6318 15.7437C29.6318 15.6769 29.565 15.6769 29.565 15.8105C29.298 17.4134 28.764 19.0164 28.0297 20.4858C27.8962 20.753 27.7626 21.0869 27.5624 21.3541C27.4289 21.6212 27.2954 21.9552 27.0951 22.2223C26.7613 22.8235 26.3608 23.3578 25.8935 23.8921C24.1578 25.829 21.8881 27.2984 19.3514 28.0331C17.4155 28.6342 15.3461 28.701 13.4102 28.3003C12.4088 28.0999 11.4075 27.7659 10.5397 27.2984C9.27132 26.6973 8.13647 25.829 7.13514 24.8272C6.66785 24.3596 6.20056 23.8253 5.80002 23.2242C5.46624 22.6899 5.13247 22.0888 4.79869 21.4877C4.73193 21.3541 4.66518 21.2205 4.59842 21.0869C3.26331 18.0146 3.1298 14.5415 4.3314 11.4023C4.39815 11.3355 4.39815 11.2019 4.39815 11.0684C4.3314 11.1351 4.26464 11.2019 4.19789 11.3355C2.99628 14.4079 3.1298 17.8142 4.3314 20.8198C4.3314 20.8198 4.26464 20.8197 4.26464 20.8865C3.86411 20.0851 3.59709 19.15 3.39682 18.2149C3.39682 18.0146 3.33006 17.881 3.19655 17.7474C3.1298 17.881 3.1298 18.0813 3.19655 18.2149C3.53033 20.0851 4.3314 21.8884 5.46624 23.3578C6.00029 24.1593 6.66785 24.9608 7.40216 25.6287C8.13647 26.2966 8.93754 26.8977 9.87212 27.3652C10.7399 27.8327 11.7413 28.1667 12.6759 28.5006C13.6772 28.701 14.6785 28.8346 15.6799 28.8346Z" fill="#909090"/>
<path d="M4.93325 14.2071C5.06676 13.0717 5.40054 11.9363 5.86783 10.8676C6.2016 10.1997 6.66889 9.5318 7.13618 8.93069C6.2016 10.1329 5.6008 11.5355 5.26703 13.0717C4.86649 14.6079 4.79974 16.144 5.06676 17.6802C4.79974 16.5448 4.73298 15.4094 4.93325 14.2071ZM18.9519 27.3648C19.1522 27.3648 19.3525 27.3648 19.486 27.298C21.1549 26.9641 22.6235 26.2294 23.9586 25.2275C25.2937 24.2257 26.4286 22.8899 27.2964 21.3537C28.0975 19.8175 28.6315 18.081 28.6983 16.3444C28.765 14.6079 28.498 12.8713 27.8972 11.2016V11.1348C27.8304 10.8676 27.8304 10.6672 27.6302 10.4669C27.2964 9.79896 26.8291 9.13106 26.3618 8.46316C25.5608 7.32772 24.4927 6.25908 23.3578 5.45759C23.6248 5.59117 23.8251 5.79154 24.0254 5.92512C24.2256 6.12549 24.4927 6.25908 24.6262 6.45945C25.0935 6.86019 25.4272 7.26093 25.8278 7.66167C25.8945 7.72846 26.028 7.86204 26.0948 7.92883C26.1616 7.99562 26.2283 7.99562 26.2283 7.99562C26.1616 7.72846 26.0948 7.52809 25.8945 7.39451C24.8932 6.19228 23.6248 5.12364 22.223 4.38895C20.8879 3.65425 19.4192 3.25351 17.8838 3.25351C14.4126 2.71919 10.8745 3.65425 8.13752 5.72475C6.80241 6.72661 5.6008 8.06241 4.73298 9.5318C3.86516 11.0012 3.26436 12.6709 2.99733 14.3407C2.93058 14.4075 2.93058 14.6079 2.99733 14.7414C2.99733 14.8082 3.06409 14.8082 3.06409 14.6747C3.33111 12.8713 3.99867 11.2016 4.93325 9.66538C5.40054 8.8639 5.93458 8.12921 6.60214 7.52809C7.20294 6.86019 7.93725 6.25908 8.67156 5.72475C9.47263 5.19043 10.2069 4.7229 11.0748 4.38895C11.9426 4.05499 12.8104 3.78783 13.745 3.65425C14.6796 3.52067 15.6142 3.45388 16.5487 3.52067C16.8158 3.52067 17.016 3.58746 17.2163 3.58746C17.4166 3.58746 17.6836 3.65425 17.8838 3.65425C18.3511 3.72104 18.8184 3.85462 19.219 3.9882L19.6195 4.12178L19.9533 4.18857C20.1535 4.25537 20.4206 4.32216 20.5541 4.45574C19.2857 3.9882 17.9506 3.85462 16.6822 3.85462C16.482 3.78783 16.215 3.78783 16.0814 3.78783C15.4806 3.78783 14.8131 3.78783 14.2123 3.85462L14.279 3.78783C14.0788 3.72104 13.8785 3.72104 13.745 3.78783C12.1429 4.12178 10.6075 4.78969 9.27237 5.79154C9.20561 5.79154 9.20561 5.85833 9.20561 5.85833C7.46996 6.99377 6.13485 8.66353 5.26703 10.5337C3.93191 13.4724 3.73164 16.7452 4.79974 19.7507C5 20.2183 5.20027 20.7526 5.40054 21.2201C5.46729 21.4873 5.66756 21.6876 5.80107 21.888C5.86783 21.9548 5.93458 22.1552 6.00134 22.222C6.06809 22.2888 6.13485 22.4891 6.2016 22.5559C7.40321 24.3593 9.00534 25.8286 10.9413 26.7637C11.008 26.8305 11.2083 26.8973 11.275 26.8973C11.3418 26.8973 11.3418 26.8973 11.275 26.8305C11.275 26.8305 11.3418 26.7637 11.275 26.7637C9.93992 26.029 8.67156 25.094 7.73698 23.8249C6.73565 22.6227 5.93458 21.2201 5.40054 19.8175C5 18.8157 4.79974 17.6802 4.73298 16.5448C4.86649 17.6134 5.20027 18.6153 5.73431 19.5504C6.2016 20.8862 6.93592 22.0884 7.8705 23.157C8.80508 24.1589 9.93992 25.0272 11.2083 25.6283H11.1415C11.275 25.6951 11.4085 25.7619 11.6088 25.7619C11.6088 25.7619 11.6088 25.6951 11.5421 25.6951C11.4753 25.6283 11.4085 25.6283 11.275 25.5615C10.2069 24.9604 9.20561 24.0921 8.40454 23.157C8.00401 22.6895 7.60347 22.1552 7.2697 21.6209C6.93592 21.0865 6.66889 20.5522 6.46863 19.9511C5.53405 17.6802 5.33378 15.0754 6.00134 12.6709C6.66889 10.2665 8.13752 8.196 10.1402 6.72661C12.1429 5.25722 14.5461 4.58932 17.0828 4.78969C20.9546 5.05685 24.4259 7.4613 26.028 11.0012C26.0948 11.2684 26.2283 11.4687 26.3618 11.6023C26.4286 11.6691 26.4953 11.8027 26.6288 11.8695C26.6956 11.8027 26.6956 11.3351 26.4286 10.734C25.6275 8.93069 24.3591 7.39451 22.757 6.25908C20.4206 4.58932 17.4833 3.85462 14.6796 4.32216C13.8118 4.45574 12.9439 4.65611 12.1429 4.99006C13.4112 4.45574 14.7463 4.12178 16.0814 3.9882C16.6155 3.9882 17.1495 3.9882 17.6168 4.05499C18.1509 4.12178 18.6182 4.18857 19.1522 4.32216C19.6863 4.45574 20.1535 4.58932 20.6876 4.78969C21.1549 4.99006 21.6889 5.25722 22.1562 5.52438C23.2911 6.12549 24.2256 6.99377 25.0935 7.92883C25.8945 8.93069 26.6288 9.99933 27.0961 11.2016C27.5634 12.4038 27.8304 13.6728 27.8304 14.9418C27.8304 16.2776 27.6302 17.5466 27.1629 18.8157C26.6956 19.9511 26.0948 21.0197 25.2937 21.888C24.2256 23.0902 22.8905 24.0253 21.4219 24.6264C20.9546 24.8268 20.4206 24.9604 19.9533 25.094C19.486 25.1607 18.9519 25.2943 18.4179 25.3611C17.8838 25.4279 17.4166 25.4279 16.8825 25.4279C16.749 25.4279 16.5487 25.4279 16.4152 25.4947C16.3485 25.4947 16.3485 25.5615 16.4152 25.5615C16.482 25.6283 16.5487 25.6283 16.6155 25.6283C18.6849 25.8286 20.8211 25.3611 22.6903 24.2925C23.1575 24.0253 23.6248 23.6914 24.0254 23.3574C24.2924 23.2238 24.4927 23.0235 24.6262 22.8231C24.7597 22.6227 25.0935 22.4223 25.227 22.222C25.6275 21.7544 26.028 21.2869 26.2951 20.8194C27.3632 19.1496 27.964 17.2127 28.0307 15.209C28.0307 13.8732 27.8304 12.5374 27.3632 11.2016C26.8959 9.93254 26.1616 8.79711 25.2937 7.72846C24.4259 6.72661 23.3578 5.85833 22.1562 5.12364C21.8224 4.92327 21.5554 4.78969 21.1549 4.65611C21.7557 4.85648 22.2897 5.12364 22.8238 5.45759C23.3578 5.72475 23.8251 6.0587 24.3591 6.45945C26.0948 7.99562 27.3632 10.1329 28.0307 12.4038C28.6315 14.7414 28.498 17.2127 27.6969 19.4836C27.3632 20.3518 26.8959 21.1533 26.3618 21.9548C25.2937 23.491 23.9586 24.6932 22.2897 25.5615C21.4887 26.029 20.6208 26.363 19.753 26.6301C19.5527 26.6969 19.3525 26.6969 19.1522 26.8305C19.0854 26.8973 18.8852 26.8973 18.8184 27.0309C18.7517 27.3648 18.7517 27.3648 18.9519 27.3648Z" fill="#909090"/>
<path d="M6 14.5413C6 14.6081 6 14.6749 6.06676 14.6749C6.13351 14.6081 6.13351 14.6081 6.13351 14.5413C6.20027 13.7398 6.33378 13.0051 6.6008 12.2704C6.86782 11.6025 7.2016 10.9346 7.60214 10.3335C7.66889 10.2667 7.66889 10.2667 7.66889 10.1331C7.66889 10.0663 7.60214 10.1331 7.60214 10.1999C7.13485 10.801 6.80107 11.5357 6.53405 12.2036C6.13351 13.0051 6 13.8066 6 14.5413Z" fill="#909090"/>
<path d="M8.13707 9.46505C8.07031 9.53184 8.07031 9.53184 8.07031 9.59863C8.07031 9.66542 8.13707 9.59863 8.13707 9.53184C9.67245 7.7285 11.8086 6.52627 14.2118 6.05874C15.4134 5.79158 16.615 5.79158 17.8166 5.99195C19.0182 6.19232 20.1531 6.59306 21.1544 7.19417C22.2893 7.79529 23.2238 8.73035 24.0249 9.73221C24.826 10.7341 25.36 11.9363 25.7606 13.2053C26.1611 14.4743 26.1611 15.8101 25.8941 17.0791C25.6271 18.3482 25.1598 19.4836 24.4255 20.5522C24.3587 20.619 24.3587 20.6858 24.3587 20.8194C24.3587 20.8862 24.4255 20.8194 24.4255 20.7526C25.2265 19.7508 25.7606 18.5485 25.9608 17.2795C26.0276 16.812 26.0943 16.2777 26.0943 15.7433C26.0943 15.4762 26.0943 15.2758 26.0943 15.0086C26.0943 14.7415 26.0276 14.5411 26.0276 14.274C26.0276 14.0068 25.9608 13.8064 25.8941 13.5393C25.8273 13.2721 25.8273 13.0717 25.6938 12.8046C25.5603 12.337 25.36 11.8695 25.1598 11.4688C24.2919 9.66542 22.8901 8.19603 21.1544 7.19417C20.0863 6.59306 18.9515 6.19232 17.7499 5.99195C16.5483 5.79158 15.3467 5.85837 14.1451 6.05874C11.9421 6.45948 9.7392 7.66171 8.13707 9.46505Z" fill="#909090"/>
<path d="M25.9605 13.2054C25.9605 13.2722 26.0272 13.2722 26.0272 13.3389C25.9605 13.2722 25.9605 13.2722 25.9605 13.2054C25.8937 12.671 25.7602 12.1367 25.5599 11.6692C25.1594 10.6673 24.5586 9.73227 23.8243 8.93078C23.4905 8.53004 23.09 8.1293 22.6227 7.79535C20.887 6.45954 18.8844 5.65805 16.6814 5.45768C15.4798 5.39089 14.345 5.45768 13.2101 5.72484C12.0753 5.99201 11.0072 6.52633 10.0726 7.26102C10.0059 7.26102 10.0059 7.32781 10.0059 7.32781C10.0726 7.32781 10.0726 7.26102 10.1394 7.26102C10.6067 6.92707 11.0072 6.65991 11.4745 6.39275C11.9418 6.12559 12.4758 5.92522 12.9431 5.79164C13.4104 5.65805 13.9444 5.52447 14.4785 5.52447C15.0125 5.45768 15.5466 5.45768 16.0806 5.45768C16.8817 5.52447 17.616 5.59126 18.4171 5.79164C19.2181 5.92522 19.9525 6.25917 20.62 6.52633C21.2876 6.79349 21.9551 7.19423 22.4892 7.66177C23.09 8.1293 23.5573 8.66362 24.0246 9.19794C25.0259 10.467 25.5599 11.8028 25.9605 13.2054Z" fill="#909090"/>
<path d="M17.4828 2.91964C17.5496 2.98643 17.7499 2.91964 17.8166 2.85285C17.6831 2.85285 17.5496 2.78606 17.4161 2.78606C16.4147 2.71927 15.3467 2.71927 14.3453 2.85285C13.344 2.98643 12.2759 3.32038 11.4081 3.65433C9.53891 4.45582 7.93678 5.52446 6.46815 6.86027C6.4014 6.92706 6.33464 6.99385 6.26789 7.12743C6.20113 7.19422 6.26789 7.19422 6.33464 7.12743C7.0022 6.45953 7.80327 5.79162 8.60433 5.2573C9.47216 4.65619 10.34 4.18866 11.3413 3.78791C12.3427 3.38717 13.344 3.12001 14.3453 2.98643C15.3467 2.85285 16.4147 2.85285 17.4828 2.91964Z" fill="#909090"/>
<path d="M5.5332 15.3427C5.5332 16.2778 5.59996 17.2129 5.93374 18.1479C6.06725 18.6155 6.20076 19.0162 6.40103 19.417C6.60129 19.8845 6.80156 20.2184 7.00183 20.6192C8.06992 22.8233 9.93908 24.493 12.2088 25.4281C12.8096 25.762 13.4104 26.0292 14.0112 26.2296C14.612 26.4299 15.2795 26.6303 15.9471 26.6971C16.0138 26.6971 16.0806 26.6971 16.2141 26.6971C16.2809 26.6971 16.2809 26.6303 16.1474 26.6303C14.8122 26.4299 13.5439 26.0292 12.3423 25.4281C12.0753 25.3613 11.875 25.1609 11.6747 25.0941C11.4077 24.9606 11.2074 24.827 10.9404 24.6934C10.4731 24.4262 10.0058 24.0923 9.6053 23.6915C8.00316 22.2222 6.80156 20.4188 6.26752 18.3483C6.00049 17.5468 5.86698 16.7453 5.80023 15.9439C5.73347 15.1424 5.80023 14.2741 5.93374 13.4726C6.06725 12.6711 6.40103 11.8696 6.7348 11.0682C7.26885 10.0663 7.93641 9.06445 8.80423 8.26297C9.20476 7.86223 9.6053 7.46149 10.1393 7.19432C10.6066 6.86037 11.1407 6.59321 11.608 6.32605C11.6747 6.25926 11.8082 6.25926 11.875 6.19247C14.345 5.05703 17.1487 5.05703 19.7522 5.92531C19.8189 5.9921 19.9524 5.9921 20.0192 5.9921C19.9524 5.92531 19.8857 5.85852 19.8189 5.85852C17.349 4.92345 14.5452 4.99024 12.142 5.9921C12.142 5.9921 12.142 5.92531 12.0753 5.92531C12.7428 5.65815 13.4771 5.39098 14.2114 5.2574C14.345 5.2574 14.4785 5.19061 14.612 5.12382C14.4785 5.05703 14.345 5.05703 14.2114 5.12382C11.9417 5.65815 9.80557 6.79358 8.20343 8.53013C7.66938 9.13124 7.20209 9.86594 6.80156 10.5338C6.40103 11.2685 6.134 12.07 5.86698 12.8715C5.66671 13.673 5.5332 14.5413 5.5332 15.3427Z" fill="#909090"/>
<path d="M17.1485 7.19431C18.0163 7.2611 18.8841 7.52826 19.6184 7.929C20.1525 8.19616 20.6198 8.53012 21.0871 8.93086C20.1525 8.26296 19.0844 7.79542 17.9495 7.46147C16.8147 7.19431 15.6131 7.19431 14.4782 7.39468C15.3461 7.19431 16.2139 7.12752 17.1485 7.19431ZM7.13512 17.9476C7.13512 18.0811 7.13512 18.2147 7.20187 18.4151C7.46889 19.6841 8.00294 20.8195 8.73725 21.8882C9.53832 22.89 10.5397 23.7583 11.6745 24.4262C12.8761 25.0273 14.0777 25.4281 15.4796 25.4949C16.8147 25.5617 18.1498 25.3613 19.3514 24.8938C19.3514 24.8938 19.3514 24.8938 19.4182 24.8938C19.6184 24.8938 19.8187 24.827 19.9522 24.7602C20.4862 24.493 20.9535 24.1591 21.4876 23.7583C22.3554 23.1572 23.1565 22.3557 23.7573 21.4207C23.6905 21.621 23.4903 21.7546 23.3567 21.955C23.2232 22.0886 23.0897 22.2889 22.8895 22.4225C22.6224 22.7565 22.2887 23.0236 21.9549 23.3576C21.8881 23.4244 21.8214 23.4912 21.6879 23.6247C21.6211 23.6915 21.6211 23.6915 21.6211 23.6915C21.8214 23.6247 21.9549 23.5579 22.0884 23.4244C23.023 22.6229 23.824 21.6878 24.3581 20.6192C24.8921 19.6173 25.1591 18.4819 25.2259 17.2797C25.6264 14.6748 24.9589 12.0032 23.3567 9.86592C21.7546 7.79542 19.4182 6.39283 16.8147 5.92529C16.7479 5.92529 16.6144 5.92529 16.5477 5.92529C16.4809 5.92529 16.4809 5.99208 16.6144 5.99208C17.9495 6.19245 19.2179 6.65999 20.4195 7.39468C21.0203 7.79542 21.5543 8.19617 22.0884 8.6637C22.5557 9.13123 23.0897 9.66555 23.4235 10.2667C23.7573 10.8678 24.1578 11.4689 24.4248 12.1368C24.6919 12.7379 24.8921 13.4726 25.0256 14.2073C25.0924 14.8752 25.1591 15.6099 25.0924 16.3446C25.0924 16.545 25.0256 16.6785 25.0256 16.8789C25.0256 17.0793 24.9589 17.2129 24.9589 17.4132C24.8921 17.7472 24.8254 18.0811 24.6919 18.4151L24.6251 18.6822L24.5583 18.9494C24.4916 19.083 24.4916 19.2834 24.3581 19.4169C24.6919 18.4151 24.8254 17.4132 24.8254 16.4782C24.8921 16.3446 24.8921 16.1442 24.8921 16.0106C24.8921 15.5431 24.8921 15.0088 24.8254 14.5412C24.8254 14.5412 24.8254 14.608 24.8921 14.608C24.9589 14.4745 24.9589 14.3409 24.8921 14.1405C24.6251 12.9383 24.0911 11.7361 23.3567 10.7342C23.3567 10.6674 23.29 10.6674 23.29 10.6674C21.4208 8.06258 18.3501 6.52641 15.1458 6.79357C13.9442 6.86036 12.7426 7.19431 11.6745 7.72863C11.4742 7.79542 11.3407 7.929 11.1405 7.99579C11.0737 8.06258 10.9402 8.06258 10.8734 8.12937C10.8067 8.19616 10.7399 8.12937 10.6064 8.19617C9.2713 9.13123 8.20321 10.4002 7.46889 11.8696C7.53565 11.9364 7.46889 12.0032 7.46889 12.1368C7.46889 12.2036 7.46889 12.2036 7.53565 12.1368C7.53565 12.1368 7.6024 12.2036 7.6024 12.1368C8.20321 11.1349 8.93752 10.1999 9.80534 9.39839C10.7399 8.59691 11.7413 8.06258 12.8093 7.59505C13.6104 7.32789 14.4115 7.12752 15.2126 7.06073C14.4115 7.12752 13.6772 7.46147 12.9429 7.79542C11.9415 8.19616 11.0069 8.73049 10.2059 9.46518C9.47156 10.1331 8.87076 11.0014 8.40347 12.0032V11.9364C8.33672 12.0032 8.33672 12.2036 8.33672 12.2704C8.33672 12.2704 8.40347 12.2704 8.40347 12.2036C8.47023 12.1368 8.47023 12.07 8.53698 12.0032C8.80401 11.6025 9.07103 11.2017 9.33805 10.8678C9.60508 10.467 9.93885 10.1999 10.3394 9.86592C10.6732 9.59876 11.0737 9.26481 11.4742 9.06444C11.8748 8.86407 12.2753 8.59691 12.7426 8.46333C14.4782 7.72863 16.4142 7.66184 18.2166 8.12937C20.019 8.59691 21.6211 9.73234 22.6892 11.2685C23.7573 12.8047 24.2913 14.6748 24.1578 16.545C23.8908 19.4837 22.0884 22.1553 19.4182 23.4244C19.2846 23.4912 19.0844 23.5579 18.9509 23.6915C18.8841 23.7583 18.8174 23.7583 18.7506 23.8919C19.0176 23.9587 19.3514 23.8919 19.5517 23.7583C20.8868 23.1572 22.0884 22.1553 22.9562 20.9531C23.824 19.7509 24.3581 18.2815 24.4916 16.7453C24.5583 16.0774 24.5583 15.4095 24.4248 14.7416C24.3581 14.0737 24.1578 13.4058 23.8908 12.8047C24.3581 13.8066 24.5583 14.8084 24.6251 15.8103C24.6251 16.211 24.6251 16.6117 24.5583 17.0125C24.4916 17.814 24.2913 18.6155 23.9575 19.3502C23.824 19.7509 23.6238 20.0848 23.4235 20.4856C22.9562 21.2871 22.2887 22.0886 21.5543 22.7565C20.82 23.3576 20.019 23.8919 19.0844 24.2926C18.1498 24.6266 17.2152 24.827 16.2139 24.8938C15.2126 24.8938 14.2112 24.7602 13.2766 24.4262C12.4088 24.0923 11.6077 23.6247 10.9402 23.0236C10.6732 22.7565 10.3394 22.4225 10.0724 22.0886C9.80534 21.8214 9.60507 21.4874 9.40481 21.0867C9.20454 20.7528 9.00427 20.4188 8.87076 20.0181C8.73725 19.6841 8.60374 19.2834 8.53698 18.8826C8.47023 18.4819 8.40347 18.0811 8.33672 17.7472C8.26996 17.4132 8.26996 16.9457 8.26996 16.6117C8.26996 16.545 8.26996 16.3446 8.20321 16.2778C8.20321 16.211 8.13645 16.211 8.13645 16.2778C8.13645 16.3446 8.06969 16.3446 8.06969 16.4114C7.93618 18.0143 8.26996 19.6173 9.07103 21.0199C9.2713 21.4207 9.53832 21.7546 9.73859 22.0886C9.8721 22.2889 10.0056 22.4225 10.2059 22.5561C10.3394 22.6897 10.4729 22.8232 10.6732 23.0236C11.3407 23.6247 12.1418 24.1591 12.9429 24.5598C13.8774 24.9605 14.8788 25.1609 15.8801 25.1609C16.8814 25.1609 17.9495 25.0273 18.8841 24.6934C19.8854 24.3594 20.7533 23.8251 21.4876 23.1572C22.2887 22.4893 22.9562 21.621 23.4235 20.7528C23.557 20.4856 23.6905 20.2852 23.824 20.0181C23.6905 20.4856 23.4903 20.8195 23.2232 21.2871C22.9562 21.6878 22.7559 22.0886 22.4222 22.4225C21.2206 23.7583 19.6184 24.7602 17.9495 25.2277C16.2139 25.6952 14.278 25.6284 12.6091 24.9605C11.9415 24.6934 11.274 24.3594 10.7399 23.9587C10.1391 23.5579 9.67183 23.0904 9.20454 22.5561C8.73725 22.0218 8.33672 21.4874 8.00294 20.8863C7.66916 20.2852 7.40214 19.6173 7.20187 19.0162C7.13512 18.8826 7.13512 18.749 7.06836 18.5487C7.26863 18.1479 7.20187 18.0811 7.13512 17.9476C7.20187 17.814 7.13512 17.8808 7.13512 17.9476Z" fill="#909090"/>
<path d="M16.8147 8.0625C16.7479 8.0625 16.7479 8.0625 16.7479 8.0625H16.8147C17.4155 8.12929 18.0163 8.26287 18.5503 8.46324C19.0844 8.66361 19.5517 8.93078 20.019 9.26473C20.0857 9.33152 20.0857 9.33152 20.1525 9.33152C20.2192 9.33152 20.1525 9.26473 20.0857 9.26473C19.6184 8.93078 19.0844 8.66361 18.5503 8.46324C18.0163 8.19608 17.4822 8.0625 16.8147 8.0625Z" fill="#909090"/>
<path d="M20.6857 9.73281C20.6189 9.66602 20.6189 9.66602 20.5521 9.66602C20.5521 9.66602 20.5521 9.73281 20.6189 9.73281C21.954 10.935 22.8886 12.538 23.2224 14.3413C23.4226 15.2764 23.4226 16.2115 23.2891 17.0797C22.9554 18.9499 21.954 20.6864 20.4854 21.8219C19.6843 22.423 18.8165 22.8237 17.8819 23.0909C16.8806 23.358 15.946 23.358 14.9447 23.1577C14.0101 23.0241 13.0755 22.6233 12.3412 22.0222C12.2744 21.9554 12.2744 21.9554 12.1409 21.9554C12.0742 21.9554 12.1409 22.0222 12.2077 22.0222C13.0088 22.6233 13.8766 23.0241 14.8112 23.1577C15.2117 23.2245 15.6122 23.2245 15.946 23.2912C16.1463 23.2912 16.3465 23.2912 16.5468 23.2912C16.7471 23.2912 16.9473 23.2245 17.1476 23.2245C17.3479 23.2245 17.5481 23.1577 17.6817 23.1577C17.8819 23.0909 18.0822 23.0909 18.2157 23.0241C18.5495 22.9573 18.95 22.7569 19.217 22.6233C20.5521 21.9554 21.687 20.8868 22.4213 19.551C22.8886 18.7495 23.2224 17.8812 23.3559 16.9462C23.4894 16.0111 23.4894 15.076 23.2891 14.2078C22.9554 12.538 22.0875 10.935 20.6857 9.73281Z" fill="#909090"/>
<path d="M17.8832 23.2908C17.8164 23.2908 17.8164 23.2908 17.8164 23.3576C17.8164 23.2908 17.8832 23.2908 17.8832 23.2908C18.2837 23.224 18.6842 23.1572 19.0848 23.0237C19.4853 22.8901 19.8191 22.6897 20.1529 22.4893C20.4866 22.289 20.8204 22.0218 21.1542 21.7546C21.4212 21.4875 21.755 21.1535 21.9553 20.8864C22.9566 19.5506 23.6241 18.0144 23.6909 16.3446C23.7577 15.4763 23.6909 14.5413 23.4906 13.7398C23.2236 12.8715 22.8898 12.07 22.289 11.3353C22.289 11.2686 22.2223 11.2686 22.2223 11.2686C22.2223 11.3353 22.289 11.3353 22.289 11.3353C22.5561 11.6693 22.7563 12.0032 22.8898 12.3372C23.0901 12.6712 23.2236 13.0719 23.3571 13.4726C23.4239 13.8734 23.5574 14.2741 23.6242 14.6081C23.6909 15.0088 23.6909 15.4096 23.6909 15.8103C23.6241 16.4114 23.6242 17.0125 23.4239 17.6136C23.2904 18.2148 23.1569 18.7491 22.8898 19.2834C22.6228 19.7509 22.3558 20.2853 22.022 20.686C21.6882 21.1535 21.2877 21.4875 20.8204 21.8214C19.9526 22.5561 18.9513 23.0904 17.8832 23.2908Z" fill="#909090"/>
<path d="M25.6934 16.8123C25.6267 16.8791 25.6934 17.0127 25.7602 17.0795C25.827 17.0127 25.827 16.8791 25.827 16.8123C25.8937 16.0109 25.8937 15.2762 25.7602 14.4747C25.6267 13.6732 25.4264 12.9385 25.1594 12.2038C24.5586 10.8012 23.7575 9.5322 22.7562 8.39676C22.6894 8.32997 22.6894 8.32997 22.5559 8.26318C22.4892 8.26318 22.4892 8.26318 22.5559 8.32997C23.09 8.8643 23.5573 9.46541 23.9578 10.0665C24.4251 10.6676 24.7589 11.4023 25.0259 12.137C25.2929 12.8717 25.4932 13.6732 25.6267 14.4747C25.6934 15.2094 25.7602 16.0109 25.6934 16.8123Z" fill="#909090"/>
<path d="M16.213 7.72852C15.4787 7.72852 14.8112 7.79531 14.1436 7.99568C13.8098 8.06247 13.5428 8.26284 13.1423 8.39642C12.8753 8.53 12.5415 8.66358 12.2077 8.86395C10.5388 9.66544 9.27045 11.1348 8.53614 12.8714C8.26912 13.3389 8.06885 13.7396 7.93534 14.2072C7.80183 14.6747 7.66832 15.209 7.60156 15.6766C7.60156 15.7434 7.60156 15.7434 7.60156 15.8101C7.60156 15.8769 7.66832 15.8769 7.66832 15.8101C7.80183 14.8083 8.13561 13.8064 8.6029 12.8714C8.66965 12.671 8.80316 12.5374 8.86992 12.337C8.93668 12.1367 9.07019 11.9363 9.13694 11.8027C9.33721 11.402 9.60423 11.068 9.87126 10.7341C10.4721 9.99939 11.3399 9.39827 12.2077 8.86395C12.7417 8.59679 13.3426 8.32963 13.9434 8.12926C15.145 7.79531 16.4133 7.66173 17.6149 7.92889C18.2157 8.06247 18.8165 8.26284 19.4173 8.53C20.2184 8.93074 20.9527 9.46506 21.5535 10.0662C21.8205 10.3333 22.1543 10.6673 22.3546 11.068C22.6216 11.402 22.8219 11.8027 22.9554 12.2035C23.0221 12.2703 23.0221 12.337 23.0889 12.4706C23.8899 14.3408 23.9567 16.5448 23.2891 18.4818C23.2224 18.4818 23.2224 18.5486 23.2224 18.5486C23.2224 18.6153 23.2891 18.6153 23.2891 18.6153L23.3559 18.5486C23.3559 18.4818 23.3559 18.4818 23.2891 18.4818C24.0235 16.6116 23.9567 14.4743 23.2224 12.6042C23.2224 12.6042 23.2891 12.6042 23.2891 12.5374C23.5562 13.0717 23.7564 13.6061 23.8232 14.2072C23.8232 14.274 23.8899 14.4076 23.8899 14.4743C23.9567 14.4076 23.9567 14.274 23.8899 14.2072C23.6897 13.0717 23.2224 11.9363 22.4881 11.0012C22.1543 10.4669 21.7538 9.99939 21.2865 9.59865C20.8192 9.13111 20.2851 8.79716 19.7511 8.53C19.217 8.26284 18.5495 7.99568 18.0154 7.8621C17.4814 7.8621 16.8806 7.72852 16.213 7.72852Z" fill="#909090"/>
<path d="M46.1201 0.982422V6.12528H41.3805V0.982422H38.8438V13.6726H41.4472V8.39615H46.1869V13.6726H48.7903V0.982422H46.1201Z" fill="#909090"/>
<path d="M53.0621 8.99752C52.9954 8.26283 53.1289 7.52813 53.4626 6.92702C54.0634 6.12554 55.1983 6.05875 55.9326 6.65986C55.9994 6.72665 56.1329 6.79344 56.1996 6.92702C56.4666 7.59492 56.6669 8.26283 56.6002 8.99752C56.6669 9.73221 56.5334 10.4669 56.1996 11.1348C55.5988 11.9363 54.5307 12.0031 53.7964 11.402C53.7297 11.3352 53.5294 11.2016 53.5294 11.1348C53.1289 10.4669 52.9954 9.73221 53.0621 8.99752ZM50.5254 8.99752C50.5254 12.337 51.9273 13.94 54.7978 13.94C57.6682 13.94 59.0701 12.2702 59.0701 8.99752C59.0701 7.46134 58.7363 6.19233 58.0688 5.39084C57.4012 4.52257 56.3331 4.12183 54.731 4.12183C53.1956 4.12183 52.1275 4.58936 51.3932 5.39084C50.7924 6.25912 50.5254 7.46134 50.5254 8.99752Z" fill="#909090"/>
<path d="M60.9414 13.6728H63.4781V0.515137H60.9414V13.6728Z" fill="#909090"/>
<path d="M65.8125 13.6728H68.2825V0.515137H65.8125V13.6728Z" fill="#909090"/>
<path d="M75.4267 9.59839V11.6021L75.1597 11.6689C74.6924 11.8025 74.1584 11.8693 73.6243 11.9361C73.0235 11.9361 72.6898 11.6021 72.6898 10.9342C72.623 10.3999 73.0235 9.86555 73.6243 9.79876C73.6911 9.79876 73.6911 9.79876 73.7579 9.79876L75.4267 9.59839ZM77.8967 7.26073C77.8967 6.12529 77.6297 5.3906 77.0956 4.85628C76.5616 4.38874 75.6938 4.12158 74.4922 4.12158C73.2238 4.12158 71.8887 4.32195 70.6871 4.65591L70.7538 6.39245L74.2251 6.25887C74.4922 6.19208 74.8259 6.32566 75.0262 6.45924C75.2265 6.65962 75.2932 6.92678 75.2932 7.26073V7.86184L73.2906 7.99542C72.4227 7.99542 71.5549 8.26258 70.8206 8.73012C70.2866 9.19765 70.0195 9.86555 70.0195 10.8674C70.0195 12.9379 71.0209 13.9398 72.9568 13.9398C73.9581 13.9398 74.8259 13.6726 75.6938 13.3387C76.0275 13.6058 76.4281 13.8062 76.8954 13.873C77.3627 13.9398 77.8967 14.0066 78.4308 14.0066L78.4975 12.1364C78.2972 12.1364 78.1637 12.0696 78.0302 11.8693C77.9635 11.6689 77.8967 11.4685 77.8967 11.2682V7.26073Z" fill="#909090"/>
<path d="M82.7688 6.66L83.0358 6.59321C83.5031 6.39284 84.0371 6.32605 84.5044 6.32605C84.9717 6.25926 85.3723 6.52642 85.6393 6.92716C85.8396 7.52827 85.9063 8.12939 85.9063 8.66371V13.673H88.443V8.59692C88.443 7.06074 88.176 5.92531 87.7087 5.19061C87.2414 4.45592 86.3736 4.05518 85.1052 4.05518C84.3042 4.12197 83.4363 4.32234 82.7688 4.78987V4.25555H80.2988V13.673H82.7688V6.66Z" fill="#909090"/>
<path d="M95.8543 11.4688C95.3202 11.6023 94.7862 11.7359 94.1854 11.7359C93.7181 11.8027 93.3175 11.5355 93.0505 11.1348C92.7835 10.4669 92.65 9.799 92.7167 9.0643C92.7167 7.26096 93.184 6.3259 94.2521 6.3259C94.8529 6.3259 95.4537 6.39269 96.1213 6.52627V11.4688H95.8543ZM96.0545 0.515137V4.32219L95.7208 4.2554C95.1867 4.18861 94.5859 4.12182 94.0519 4.05503C92.7167 4.05503 91.7822 4.45577 91.1146 5.25725C90.4471 6.05874 90.1133 7.32775 90.1133 8.99751C90.1133 10.6673 90.3803 11.9363 90.9143 12.7378C91.3816 13.5393 92.4497 13.94 93.7181 13.94C94.5192 13.8732 95.2535 13.6728 95.9878 13.3389V13.7396H98.4577V0.515137H96.0545Z" fill="#909090"/>
<path d="M43.5169 18.4818C44.2512 18.4818 45.4528 18.5486 47.1885 18.749L47.3887 16.6785L46.7212 16.5449C45.5196 16.2777 44.3847 16.2109 43.2499 16.1441C42.115 16.0773 40.9802 16.4113 40.1124 17.0792C39.3113 17.6803 38.9108 18.6154 38.9108 19.9512C38.844 20.8195 39.1778 21.6877 39.7786 22.3556C40.3794 22.9567 41.3807 23.4243 42.8494 23.825C43.4502 23.9586 44.1177 24.2258 44.7185 24.5597C44.9855 24.7601 45.1858 25.1608 45.1858 25.4948C45.1858 26.6302 44.5182 27.1645 43.1831 27.1645C41.9148 27.0977 40.5797 27.031 39.3113 26.8306L39.0443 28.8343L39.7118 28.9679C40.9134 29.235 42.115 29.4354 43.2499 29.4354C44.4515 29.5022 45.5196 29.1682 46.3874 28.4336C47.1885 27.6321 47.7225 26.5634 47.589 25.428C47.6558 24.6265 47.3887 23.6914 46.8547 23.0903C46.0536 22.4892 45.1858 21.9549 44.2512 21.7545C43.4502 21.4874 42.6491 21.2202 41.848 20.8195C41.5142 20.6191 41.314 20.2851 41.3807 19.8844C41.5142 18.9493 42.1818 18.4818 43.5169 18.4818Z" fill="#909090"/>
<path d="M51.9958 26.697C51.7288 26.0291 51.5286 25.2944 51.5953 24.5597C51.5286 23.825 51.6621 23.0903 51.9958 22.4892C52.5966 21.6877 53.7315 21.6209 54.4658 22.2221C54.5326 22.2889 54.6661 22.3556 54.7328 22.4892C54.9998 23.1571 55.2001 23.825 55.1334 24.5597C55.2001 25.2944 55.0666 26.0291 54.7328 26.697C54.132 27.4985 53.0639 27.5653 52.3296 26.9642C52.1961 26.8974 52.1294 26.7638 51.9958 26.697ZM50.0599 20.953C49.3924 21.8213 49.0586 23.0235 49.0586 24.5597C49.0586 27.8992 50.4605 29.5022 53.331 29.5022C56.2014 29.5022 57.6033 27.8325 57.6033 24.5597C57.6033 23.0235 57.2695 21.7545 56.602 20.953C55.9344 20.0848 54.8663 19.684 53.2642 19.684C51.8623 19.6172 50.7275 20.0848 50.0599 20.953Z" fill="#909090"/>
<path d="M59.4727 29.2354H61.9426V16.1445H59.4727V29.2354Z" fill="#909090"/>
<path d="M69.083 25.094V27.0977L68.816 27.1645C68.3487 27.2981 67.8146 27.3649 67.2806 27.4317C66.6798 27.4317 66.346 27.0977 66.346 26.4298C66.2793 25.8955 66.6798 25.3612 67.2806 25.2944C67.3473 25.2944 67.3473 25.2944 67.4141 25.2944L69.083 25.094ZM71.553 22.7563C71.553 21.6209 71.2859 20.8862 70.7519 20.3519C70.2178 19.8843 69.35 19.6172 68.1484 19.6172C66.8801 19.6172 65.5449 19.8176 64.3433 20.1515L64.4101 21.8881L67.8814 21.7545C68.1484 21.6877 68.4822 21.8213 68.6825 21.9548C68.8827 22.1552 68.9495 22.4224 68.9495 22.7563V23.3574L66.9468 23.491C66.079 23.491 65.2112 23.7582 64.4769 24.2257C63.9428 24.6933 63.6758 25.3612 63.6758 26.363C63.6758 28.4335 64.6771 29.4354 66.613 29.4354C67.6144 29.4354 68.4822 29.1682 69.35 28.7675C69.6838 29.0346 70.0843 29.235 70.5516 29.3018C71.0189 29.3686 71.553 29.4354 72.087 29.4354L72.1538 27.5652C71.9535 27.5652 71.82 27.4984 71.6865 27.2981C71.6197 27.0977 71.553 26.8973 71.553 26.697V22.7563Z" fill="#909090"/>
<path d="M76.495 29.235V22.9567L76.8955 22.8231C77.6298 22.556 78.4977 22.3556 79.499 22.1552V19.6172C78.4309 19.8843 77.4296 20.2183 76.5618 20.8194V19.8176H74.0918V29.235H76.495Z" fill="#909090"/>
</svg>
