<svg width="72" height="37" viewBox="0 0 72 37" fill="none" xmlns="http://www.w3.org/2000/svg">
<path d="M1.0332 12.8676C3.59529 15.6728 6.69675 16.7415 10.3376 15.6728C13.911 14.671 16.0012 12.1329 16.7428 8.45947C16.9451 8.45947 17.0799 8.45947 17.2822 8.45947C34.5425 8.45947 51.8029 8.45947 69.1307 8.45947C70.4791 8.45947 71.2882 9.26096 71.2882 10.5968C71.2882 18.4112 71.2882 26.2257 71.2882 34.0402C71.2882 35.2424 70.5465 36.0439 69.3329 36.1107C69.1981 36.1107 69.1307 36.1107 68.9958 36.1107C47.1507 36.1107 25.3056 36.1107 3.39302 36.1107C2.44909 36.1107 1.70744 35.8435 1.3029 34.9752C1.16805 34.7081 1.10063 34.3741 1.10063 34.0402C1.10063 27.0272 1.10063 20.081 1.10063 13.068C1.0332 13.068 1.0332 13.0012 1.0332 12.8676ZM63.2648 31.4354C63.3323 31.4354 63.3323 31.3686 63.3997 31.3686C65.2201 31.0346 66.5012 29.966 67.1754 28.2294C67.917 26.2925 67.9845 24.3556 67.5125 22.3519C67.1754 20.9493 66.5686 19.6803 65.2875 18.8788C64.1413 18.0773 62.7929 17.9437 61.4444 18.0105C59.3543 18.1441 57.871 19.1459 57.0619 21.0161C56.0506 23.3537 56.0506 25.7582 56.9945 28.1626C57.4664 29.4984 58.4104 30.4335 59.6914 31.0346C60.0285 31.1682 60.3656 31.235 60.6353 31.3686C60.6353 32.1033 60.6353 32.7712 60.6353 33.5059C61.5793 33.3055 62.3883 33.4391 63.1974 33.6394C64.1413 33.9066 65.0178 34.107 65.9618 34.3073C67.108 34.5745 68.3216 34.7081 69.5352 34.4409C69.67 34.4409 69.8723 34.3073 69.9397 34.1738C70.142 33.5059 70.0746 32.9047 69.8723 32.17C67.5125 32.838 65.4224 31.9697 63.2648 31.4354ZM8.11264 31.0346C8.92172 31.0346 9.7308 31.0346 10.5399 31.0346C10.5399 30.8342 10.5399 30.7007 10.5399 30.5671C10.5399 28.6969 10.5399 26.8936 10.5399 25.0235C10.5399 24.0216 11.2141 23.3537 12.158 23.3537C13.0345 23.3537 13.7088 23.888 13.8436 24.8899C13.8436 25.0903 13.911 25.3574 13.911 25.5578C13.911 27.2276 13.911 28.8973 13.911 30.6339C13.911 30.7675 13.911 30.9678 13.911 31.1014C14.7201 31.1014 15.4618 31.1014 16.2709 31.1014C16.2709 31.0346 16.3383 30.9678 16.3383 30.901C16.3383 28.6969 16.3383 26.4929 16.3383 24.2888C16.3383 23.4873 16.0012 22.7526 15.4618 22.1515C14.383 20.9493 12.158 20.8157 10.877 21.8843C10.8096 21.9511 10.6747 22.0179 10.5399 22.0847C10.5399 21.7508 10.5399 21.4836 10.4725 21.2832C9.66337 21.2832 8.92172 21.2832 8.11264 21.2832C8.11264 24.5559 8.11264 27.8287 8.11264 31.0346ZM36.363 24.0884C37.1046 23.2869 37.9811 23.1534 38.9251 23.2869C39.6667 23.3537 40.1387 23.8213 40.2061 24.5559C40.2061 25.6246 40.2061 26.6932 40.2061 27.7619C40.2061 28.2962 39.9364 28.7637 39.397 28.9641C38.7902 29.1645 38.1834 29.2313 37.5766 29.0309C37.0372 28.8973 36.8349 28.4966 36.8349 27.9623C36.8349 27.4279 37.1046 27.094 37.644 27.0272C37.9137 26.9604 38.2508 26.9604 38.5879 26.8936C38.5879 26.3593 38.5879 25.825 38.5879 25.2239C37.7789 25.3574 37.0372 25.4242 36.2956 25.5578C35.3516 25.825 34.7448 26.4929 34.5425 27.4279C34.3403 28.4966 34.5425 29.5652 35.419 30.2999C36.363 31.1014 37.5092 31.1682 38.5879 30.9678C39.1948 30.8342 39.7341 30.5003 40.2735 30.2999C40.2735 30.5003 40.2735 30.7007 40.3409 30.9678C41.15 30.9678 41.9591 30.9678 42.7008 30.9678C42.7008 28.697 42.7008 26.4929 42.7008 24.2888C42.7008 22.7526 41.8243 21.7508 40.3409 21.4168C39.397 21.2164 38.3857 21.2164 37.3743 21.2832C36.4304 21.35 35.5539 21.8175 34.9471 22.4854C35.419 23.0198 35.891 23.5541 36.363 24.0884ZM24.5639 23.7545C25.1033 23.2201 25.5753 22.7526 26.1146 22.2851C25.9124 22.1515 25.7775 22.0179 25.5753 21.8843C24.0919 21.1496 22.4738 20.9493 20.8556 21.4168C19.0352 21.9511 18.2261 23.3537 18.6307 25.0903C18.9004 26.1589 19.7094 26.8268 21.0579 27.0272C21.7996 27.1608 22.5412 27.1608 23.2829 27.2944C23.6874 27.3611 23.9571 27.6283 24.0245 28.029C24.0919 28.4298 23.8897 28.8305 23.4851 28.9641C23.2829 29.0309 23.0132 29.0977 22.7435 29.1645C21.5973 29.2313 20.5185 29.0977 19.7094 28.363C19.17 28.8973 18.6307 29.4316 18.0913 29.966C18.1587 30.0328 18.2261 30.0328 18.2935 30.0995C19.1701 30.8342 20.2488 31.1682 21.3276 31.235C22.5412 31.3686 23.6874 31.3018 24.7662 30.7675C25.9124 30.1663 26.5192 29.0977 26.3843 27.6951C26.2495 26.4261 25.5753 25.6246 24.1594 25.3574C23.3503 25.1571 22.4738 25.1571 21.6647 25.0235C21.1253 24.9567 20.8556 24.6227 20.8556 24.222C20.8556 23.7545 21.1253 23.4205 21.6647 23.3537C22.8109 23.0198 23.7548 23.1534 24.5639 23.7545ZM27.598 23.4205C27.9351 23.4205 28.2722 23.4205 28.6093 23.4205C28.6093 23.6209 28.6093 23.7545 28.6093 23.888C28.6093 25.3574 28.6093 26.8268 28.6093 28.2294C28.6093 29.632 29.351 30.6339 30.5646 30.901C31.2388 31.0346 31.9805 30.9678 32.7221 31.0346C32.7221 30.2999 32.7221 29.632 32.7221 28.9641C32.4524 28.9641 32.2502 28.9641 32.0479 28.9641C31.2388 28.9641 30.9691 28.6969 30.9691 27.8955C30.9691 26.4929 30.9691 25.0903 30.9691 23.7545C30.9691 23.6209 30.9691 23.4873 30.9691 23.2869C31.5759 23.2869 32.1153 23.2869 32.6547 23.2869C32.6547 22.6858 32.6547 22.0847 32.6547 21.4836C32.0479 21.4836 31.5085 21.4836 30.9017 21.4836C30.9017 20.4817 30.9017 19.5467 30.9017 18.6116C30.0926 18.6116 29.2835 18.6116 28.4745 18.6116C28.4745 19.5467 28.4745 20.4817 28.4745 21.4836C28.1373 21.4836 27.8002 21.4836 27.4631 21.4836C27.598 22.1515 27.598 22.7526 27.598 23.4205ZM45.128 17.6765C45.128 18.0105 45.128 18.2777 45.128 18.5448C45.128 21.8175 45.128 25.0235 45.128 28.2962C45.128 29.632 45.7348 30.6339 46.881 30.9678C47.6901 31.1682 48.4992 31.1014 49.3082 31.1682C49.3082 30.4335 49.3082 29.7656 49.3082 29.0977C48.9711 29.0977 48.7014 29.0977 48.3643 29.0977C47.7575 29.0977 47.5552 28.8305 47.4878 28.2962C47.4878 28.1626 47.4878 27.9623 47.4878 27.8287C47.4878 24.6895 47.4878 21.4836 47.4878 18.3444C47.4878 18.1441 47.4878 18.0105 47.4878 17.8101C46.7462 17.6765 46.0045 17.6765 45.128 17.6765ZM55.2415 29.0309C54.9044 29.0309 54.5672 29.0309 54.2976 29.0309C53.7582 29.0309 53.5559 28.7637 53.4885 28.2294C53.4885 28.029 53.4885 27.8955 53.4885 27.6951C53.4885 24.5559 53.4885 21.35 53.4885 18.2109C53.4885 18.0105 53.4885 17.8769 53.4885 17.6765C52.6794 17.6765 51.8703 17.6765 51.0612 17.6765C51.0612 17.8769 51.0612 18.0105 51.0612 18.1441C51.0612 20.1478 51.0612 22.1515 51.0612 24.1552C51.0612 25.6246 51.0612 27.094 51.0612 28.4966C51.0612 29.632 51.8029 30.6339 52.8817 30.8342C53.6233 31.0346 54.4998 30.9678 55.3089 31.0346C55.2415 30.3667 55.2415 29.6988 55.2415 29.0309ZM3.59529 21.2832C3.59529 21.4168 3.52786 21.4836 3.52786 21.5504C3.52786 24.6227 3.52786 27.6283 3.52786 30.7007C3.52786 30.7675 3.52786 30.8342 3.52786 30.8342C3.59528 30.901 3.66271 31.0346 3.73013 31.0346C4.53921 31.0346 5.34829 31.0346 6.08994 31.0346C6.08994 27.7619 6.08994 24.4892 6.08994 21.2164C5.28087 21.2832 4.47179 21.2832 3.59529 21.2832ZM6.15737 17.543C5.34829 17.543 4.60663 17.543 3.86498 17.543C3.79755 17.543 3.59529 17.6765 3.59529 17.7433C3.59529 18.4112 3.59529 19.0791 3.59529 19.747C4.47179 19.747 5.34829 19.747 6.22479 19.747C6.15737 19.0123 6.15737 18.3444 6.15737 17.543Z" fill="#919191"/>
<path d="M15.0569 5.18681C16.1356 7.992 15.0569 11.9326 11.6857 13.8028C8.38196 15.6061 4.20172 14.671 2.1116 11.6655C-0.180786 8.52633 0.291176 4.31853 3.2578 1.84729C6.22442 -0.623952 10.2024 -0.22321 12.2925 1.58013C11.8205 2.11445 11.3486 2.71557 10.8766 3.24989C10.135 2.78236 9.32589 2.51519 8.38196 2.4484C5.8873 2.18124 3.39264 4.05137 2.92068 6.52262C2.3813 9.46139 4.40399 12.1998 7.37062 12.6005C10.2698 12.9345 12.8993 10.7304 13.1016 7.85842C13.1016 7.65805 13.2364 7.39089 13.3713 7.19052C13.9781 6.45583 14.4501 5.85471 15.0569 5.18681Z" fill="#919191"/>
<path d="M8.45021 7.92533C9.73125 6.45594 10.9449 4.98655 12.1585 3.51717C12.7653 2.78247 13.4395 1.98099 14.1138 1.24629C14.4509 0.912343 14.788 0.711972 15.26 0.845553C15.7319 0.979133 16.069 1.24629 16.069 1.71383C16.069 2.04778 15.9342 2.44852 15.7319 2.71568C14.0463 4.71939 12.3608 6.7231 10.6752 8.7936C10.2032 9.39472 9.73125 9.92904 9.19186 10.5302C8.51763 11.3316 7.70855 11.2648 7.16917 10.3966C6.29266 8.99397 5.41616 7.59138 4.60708 6.12199C4.26997 5.58767 4.40481 5.05334 4.80935 4.71939C5.14647 4.38544 5.75328 4.31865 6.15782 4.6526C6.36009 4.78618 6.49493 4.98655 6.62978 5.25372C7.23659 6.0552 7.8434 6.99026 8.45021 7.92533Z" fill="#919191"/>
<path d="M64.8824 24.7563C64.8824 25.825 64.8149 26.8268 64.343 27.8287C63.871 28.8305 63.0619 29.3648 61.9832 29.3648C60.837 29.3648 60.0953 28.8305 59.6233 27.8287C59.4211 27.3611 59.2862 26.8936 59.2188 26.4261C59.0165 25.0235 59.0165 23.5541 59.4211 22.2183C59.893 20.7489 61.1066 20.0142 62.6574 20.3481C63.4665 20.5485 64.0058 21.0161 64.2755 21.7507C64.8149 22.6858 64.8824 23.7545 64.8824 24.7563Z" fill="#919191"/>
</svg>
