<svg width="43" height="37" viewBox="0 0 43 37" fill="none" xmlns="http://www.w3.org/2000/svg">
<path d="M39.2096 18.1106C39.2096 27.8687 31.2123 35.8702 21.4593 35.8702C11.7063 35.8702 3.78906 27.8687 3.78906 18.1106C3.78906 8.35256 11.7864 0.351074 21.5394 0.351074C31.2924 0.431223 39.2096 8.27241 39.2096 18.1106Z" fill="#909090"/>
<path d="M21.4594 36.1108C11.5462 36.1108 3.46875 28.0292 3.46875 18.1108C3.46875 8.19247 11.5462 0.11084 21.4594 0.11084C31.3726 0.11084 39.4501 8.11232 39.4501 18.1108C39.4501 28.1094 31.4527 36.1108 21.4594 36.1108ZM21.4594 0.671879C11.8666 0.671879 3.94939 8.43292 3.94939 18.191C3.94939 27.9491 11.7865 35.7101 21.4594 35.7101C31.1323 35.7101 38.9694 27.9491 38.9694 18.191C38.9694 8.43292 31.1323 0.671879 21.4594 0.671879Z" fill="white"/>
<path d="M38.4082 18.1109C38.4082 27.3881 30.8916 34.9087 21.6192 34.9087C12.3468 34.9087 4.83014 27.3881 4.83014 18.1109C4.83014 8.83373 12.3468 1.31313 21.6192 1.31313C30.8114 1.23299 38.4082 8.75358 38.4082 18.1109Z" fill="#909090"/>
<path d="M21.459 35.2292C12.0264 35.2292 4.34949 27.5483 4.34949 18.1108C4.34949 8.67332 12.0264 0.992432 21.459 0.992432C30.8915 0.992432 38.5684 8.67332 38.5684 18.1108C38.6485 27.5483 30.9716 35.2292 21.459 35.2292ZM21.459 1.47332C12.2667 1.47332 4.91024 8.91377 4.91024 18.0307C4.91024 27.1475 12.3468 34.588 21.459 34.588C30.5711 34.588 38.0077 27.1475 38.0077 18.0307C38.1679 8.91377 30.6512 1.47332 21.459 1.47332Z" fill="white"/>
<path d="M38.1679 18.1109C38.1679 27.308 30.7313 34.7484 21.5391 34.7484C12.3468 34.7484 4.83014 27.308 4.83014 18.1109C4.83014 8.9139 12.2667 1.39331 21.459 1.39331C30.6512 1.39331 38.1679 8.83376 38.1679 18.1109Z" fill="white"/>
<path d="M21.459 34.9887C12.1866 34.9887 4.5097 27.4681 4.5097 18.0306C4.5097 8.5931 12.0264 1.07251 21.459 1.07251C30.8916 1.07251 38.4082 8.5931 38.4082 18.0306C38.4082 27.4681 30.8114 34.9887 21.459 34.9887ZM21.459 1.63355C12.4269 1.63355 5.07045 8.99384 5.07045 18.0306C5.07045 27.0673 12.4269 34.4276 21.459 34.4276C30.491 34.4276 37.9276 27.1475 37.9276 18.1107C37.9276 9.07399 30.491 1.63355 21.459 1.63355Z" fill="#909090"/>
<path d="M32.8939 18.1106C32.8939 24.429 27.7738 29.5518 21.4587 29.5518C15.1436 29.5518 10.0234 24.3488 10.0234 18.1106C10.0234 11.8724 15.1436 6.66943 21.4587 6.66943C27.7738 6.66943 32.8939 11.7923 32.8939 18.1106Z" fill="#909090"/>
<path d="M21.459 29.7122C15.0638 29.7122 9.86353 24.5093 9.86353 18.1108C9.86353 11.7122 15.0638 6.50928 21.459 6.50928C27.8542 6.50928 33.0544 11.7122 33.0544 18.1108C33.0544 24.5093 27.8542 29.7122 21.459 29.7122ZM21.459 6.91002C15.224 6.91002 10.184 11.9527 10.184 18.1909C10.184 24.4291 15.224 29.4718 21.459 29.4718C27.694 29.4718 32.734 24.349 32.734 18.1909C32.734 12.0328 27.694 6.91002 21.459 6.91002Z" fill="white"/>
<path d="M9.70324 27.5479C9.70324 27.7883 9.86345 28.0288 10.0237 28.2692C10.3441 28.5898 10.6645 28.5898 10.9048 28.4295C11.1452 28.1891 11.1452 27.9486 10.9849 27.5479C10.7446 27.067 10.7446 26.5861 11.0651 26.1853C11.4656 25.8648 12.0263 25.8648 12.507 26.3456C12.7473 26.5861 12.8274 26.8265 12.9075 26.9868L12.5871 27.1471C12.5871 27.067 12.507 26.8265 12.2667 26.5861C11.9462 26.2655 11.6258 26.3456 11.4656 26.4258C11.2253 26.6662 11.2253 26.9067 11.4656 27.3074C11.7059 27.8685 11.7059 28.2692 11.3054 28.6699C10.9048 29.0707 10.3441 28.9905 9.78335 28.4295C9.54303 28.1891 9.38281 27.8685 9.38281 27.7082L9.70324 27.5479Z" fill="#909090"/>
<path d="M13.5417 27.4678C13.7019 27.5479 13.9422 27.7082 14.2627 27.8685C14.5831 28.109 14.8234 28.3494 14.8234 28.5899C14.9035 28.8303 14.8234 29.0707 14.6632 29.3112C14.503 29.5516 14.2627 29.7119 14.0223 29.7119C13.7019 29.7921 13.3815 29.6318 12.981 29.3913C12.9009 29.3112 12.8207 29.231 12.7406 29.1509L11.9396 30.1928L11.6191 29.9524L13.535 27.4745L13.5417 27.4678ZM12.981 28.9906C13.0611 29.0707 13.1412 29.1509 13.2213 29.231C13.6218 29.5516 14.0223 29.4715 14.2627 29.1509C14.503 28.8303 14.4229 28.4296 14.0223 28.1891C13.8621 28.109 13.782 28.0288 13.7019 27.9487L12.981 28.9906Z" fill="#909090"/>
<path d="M16.498 31.1487L15.3832 30.6745L14.8225 31.7899L16.1776 32.3509L16.0241 32.6715L14.2617 31.9502L15.7036 28.8311L17.2991 29.6325L17.1389 29.9531L15.944 29.3921L15.5434 30.3539L16.6582 30.8281L16.498 31.1487Z" fill="#909090"/>
<path d="M19.4638 33.4728C19.3036 33.5529 18.9832 33.5529 18.5826 33.4728C17.7014 33.3125 17.0606 32.5911 17.3009 31.4757C17.5412 30.5139 18.3423 29.8728 19.377 30.1132C19.7776 30.1934 20.0179 30.3537 20.098 30.4338L19.9378 30.7544C19.7776 30.6742 19.6173 30.5139 19.2969 30.5139C18.576 30.3537 17.855 30.7544 17.6948 31.5559C17.5346 32.3574 17.855 32.9986 18.6561 33.1588C18.8964 33.239 19.1367 33.239 19.377 33.1588V33.4794H19.4571L19.4638 33.4728Z" fill="#909090"/>
<path d="M20.6844 30.3328L20.5254 33.6084L20.9255 33.6278L21.0844 30.3523L20.6844 30.3328Z" fill="#909090"/>
<path d="M22.6606 32.591L22.4202 33.6329L22.0197 33.713L22.7407 30.1932L23.2213 30.113L24.7433 33.3123L24.2627 33.3924L23.702 32.5108L22.6606 32.591ZM23.6953 32.1101L23.2948 31.2284C23.2146 30.988 23.1345 30.8277 23.0544 30.6674C23.0544 30.8277 22.9743 31.0681 22.9743 31.3086L22.734 32.2704L23.6953 32.1101Z" fill="#909090"/>
<path d="M24.8164 29.9523L25.2169 29.792L26.0981 32.5905L27.5334 32.1096L27.6135 32.4302L25.8578 33.0714L24.8164 29.9523Z" fill="#909090"/>
<path d="M27.219 28.851L26.8633 29.0352L28.3696 31.9477L28.7254 31.7635L27.219 28.851Z" fill="#909090"/>
<path d="M29.5363 30.8281C29.7766 30.8281 30.0169 30.7479 30.2572 30.5876C30.5777 30.3472 30.6578 30.0266 30.4976 29.706C30.3373 29.4656 30.097 29.3854 29.6164 29.5457C29.0556 29.706 28.6551 29.6259 28.3347 29.3053C28.0142 28.9045 28.1745 28.3435 28.6551 27.8626C28.8954 27.7023 29.1357 27.6221 29.296 27.542L29.3761 27.8626C29.296 27.8626 29.0556 27.9427 28.8153 28.103C28.4949 28.3435 28.4949 28.6641 28.575 28.8244C28.7352 29.0648 28.9755 29.0648 29.4562 28.9847C30.0169 28.8244 30.4175 28.9045 30.7379 29.3053C31.0583 29.706 30.9782 30.267 30.3373 30.8281C30.097 30.9884 29.7766 31.1487 29.5363 31.1487V30.8281Z" fill="#909090"/>
<path d="M30.4917 26.8341L29.8575 27.6289L29.6172 27.3885L31.2928 25.5518L31.5331 25.7922L30.8121 26.5135L32.975 28.5106L32.7347 28.8312L30.4917 26.8341Z" fill="#909090"/>
<path d="M24.0949 27.7889L21.5381 26.1124L18.9814 27.869L17.6196 25.0705L14.5021 25.311L14.6623 22.1918L11.8652 20.9095L13.6209 18.2713L11.8652 15.633L14.5822 14.3507L14.3419 11.2316L17.5395 11.3918L18.8212 8.59333L21.3779 10.2698L23.9347 8.51318L25.3766 11.2316L28.414 11.0713L28.2538 14.1904L31.1309 15.4727L29.3752 18.111L31.211 20.669L28.3339 22.0316L28.5742 25.2308L25.5368 24.9904L24.0949 27.7889Z" fill="white"/>
<path d="M41.7665 22.0315H1.15234L2.90802 18.1109L1.15234 14.3506H41.7665L40.0909 18.191L41.7665 22.0315Z" fill="white"/>
<path d="M42.2473 22.2722H0.751984L2.58776 18.031L0.671875 14.0303H42.0871L40.1712 18.1112L42.2473 22.2722ZM1.47294 21.7913H41.3728L39.6906 18.1112L41.3728 14.5112H1.47294L3.15519 18.1112L1.47294 21.7913Z" fill="#909090"/>
<path d="M32.7343 11.2314C32.5741 11.2314 32.4139 11.2314 32.2537 11.1513C32.0934 11.0711 32.0133 11.0711 31.9332 10.9108C31.8531 10.8307 31.773 10.6704 31.6128 10.5902L31.4526 10.2696L33.3685 8.90709L33.5287 9.22769C33.6088 9.38798 33.6889 9.46813 33.769 9.62843C33.8491 9.70858 33.8491 9.86888 33.8491 10.0292C33.8491 10.1895 33.8491 10.3498 33.769 10.5101C33.6889 10.6704 33.5287 10.8307 33.3685 10.9108C33.1281 11.0711 32.8878 11.2314 32.7276 11.2314M34.0894 10.6704C34.1695 10.4299 34.2496 10.2696 34.2496 10.0292C34.2496 9.86888 34.2496 9.78873 34.1695 9.62843C34.0894 9.46813 34.0093 9.30784 33.8491 9.06739L33.4486 8.50635L30.9719 10.2696L31.3725 10.8307C31.5327 11.0711 31.6128 11.2314 31.773 11.3115C31.8531 11.3917 32.0133 11.4718 32.1735 11.552C32.4139 11.6321 32.5741 11.6321 32.8144 11.6321C33.0547 11.6321 33.295 11.4718 33.5354 11.3115C33.7757 11.0711 33.9359 10.9108 34.0961 10.6704M30.6515 9.38799L29.53 8.34606L30.251 7.54457L31.3725 8.50635L31.6128 8.26591L30.4913 7.30413L31.052 6.66294L32.1735 7.62472L32.4139 7.38427L31.1322 6.1019L29.0561 8.41952L30.498 9.7019L30.6582 9.38131L30.6515 9.38799ZM28.8157 5.94828C28.7356 6.02843 28.6555 6.02843 28.5754 6.02843H28.3351C28.255 6.02843 28.1749 5.94828 28.0147 5.86813L27.6942 5.70784L28.255 4.74606L28.6555 4.9865C28.7356 5.06665 28.8157 5.06665 28.8958 5.1468C28.9492 5.20023 29.0026 5.25366 29.0561 5.30709C29.0561 5.38724 29.1362 5.46739 29.1362 5.54754C29.1362 5.62769 29.1362 5.70784 29.0561 5.78798C28.8958 5.78798 28.8958 5.86813 28.8157 5.94828ZM28.3351 6.34902C28.4953 6.34902 28.7356 6.34902 28.8958 6.26888C29.0561 6.18873 29.2163 6.02843 29.2964 5.86813C29.3765 5.70784 29.3765 5.62769 29.3765 5.46739C29.3765 5.38724 29.3765 5.22695 29.2964 5.1468C29.2163 5.06665 29.2163 4.9865 29.0561 4.90635C28.9759 4.8262 28.8157 4.74606 28.7356 4.66591L28.0948 4.26516L26.5727 6.90338L26.8932 7.06368L27.4539 6.02175L27.9346 6.2622L28.1749 7.78502L28.5754 8.02546L28.3351 6.34234V6.34902ZM26.0187 6.26888L24.5767 5.86813L24.8972 4.8262L26.3391 5.22695L26.4192 4.90635L25.0574 4.50561L25.2977 3.70413L26.8197 4.10487L26.8998 3.70413L25.0641 3.14309L24.1829 6.02175L26.0187 6.58279V6.2622V6.26888ZM23.8558 2.90932L21.4593 2.74902V3.06962L22.4205 3.14977L22.3404 5.86813H22.741L22.9012 3.14977L23.8625 3.22991V2.90932H23.8558ZM20.5781 4.51229C20.4179 4.43214 20.2577 4.35199 20.0974 4.35199H19.3765C19.2163 4.35199 19.1362 4.27184 19.0561 4.27184C18.9759 4.1917 18.9759 4.11155 18.8958 4.0314C18.8958 3.8711 18.8958 3.79095 19.0561 3.7108C19.1362 3.63066 19.2964 3.55051 19.5367 3.55051H20.0974C20.2577 3.55051 20.4179 3.63066 20.5781 3.7108L20.498 3.22991C20.3378 3.14977 20.1775 3.14977 20.0173 3.14977H19.4566C19.1362 3.22991 18.8958 3.31006 18.7356 3.47036C18.5754 3.63066 18.4953 3.8711 18.4953 4.11155C18.4953 4.35199 18.5754 4.51229 18.7356 4.59244C18.8958 4.67259 19.0561 4.75273 19.2964 4.83288H19.9372C20.0974 4.83288 20.1775 4.91303 20.2577 4.91303C20.3378 4.99318 20.3378 5.07333 20.4179 5.15348C20.4179 5.31377 20.4179 5.47407 20.2577 5.55422C20.1775 5.63437 19.9372 5.71452 19.777 5.79466H19.2163C19.0561 5.71452 18.8157 5.71451 18.6555 5.55422L18.7356 6.03511C18.8157 6.11526 18.9759 6.11526 19.1362 6.11526H19.6969C19.8571 6.11526 20.0173 6.03511 20.1776 5.95496C20.3378 5.87481 20.4179 5.79466 20.498 5.71452C20.5781 5.63437 20.6582 5.55422 20.6582 5.39392C20.6582 5.31377 20.7383 5.15348 20.6582 5.07333C20.8184 4.75273 20.7383 4.51229 20.5781 4.51229ZM18.1014 5.94828L17.781 6.02843L16.98 3.7108L17.3004 3.63066L17.2203 3.31006L16.1789 3.63066L16.259 3.95125L16.5794 3.8711L17.3004 6.18873L16.98 6.26888L17.0601 6.58947L18.1014 6.26888V5.94828ZM15.785 5.47407L14.8237 6.03511L14.984 6.3557L15.6248 5.95496L16.0253 6.59615C15.9452 6.6763 15.8651 6.75644 15.785 6.83659C15.7049 6.91674 15.6248 6.99689 15.4646 7.07704C15.1442 7.23734 14.9039 7.31748 14.6635 7.15719C14.4232 7.07704 14.1829 6.83659 13.9426 6.516C13.7824 6.19541 13.7022 5.87481 13.7022 5.63437C13.7824 5.39392 13.9426 5.15348 14.1829 4.99318C14.263 4.91303 14.4232 4.83288 14.5033 4.83288C14.5834 4.83288 14.7436 4.75273 14.8237 4.75273H15.3044L15.0641 4.35199C14.8237 4.35199 14.6635 4.43214 14.5033 4.43214C14.3431 4.51229 14.1829 4.51229 14.0227 4.59244C13.6221 4.83288 13.3818 5.15348 13.3017 5.47407C13.2216 5.87481 13.3017 6.19541 13.542 6.75644C13.7023 6.99689 13.7824 7.15719 13.9426 7.31748C14.1028 7.47778 14.263 7.55793 14.4232 7.55793C14.5834 7.63808 14.7436 7.63808 14.984 7.55793C15.1442 7.55793 15.3845 7.47778 15.5447 7.31748C15.7049 7.23734 15.785 7.15719 15.9452 6.99689C16.1055 6.83659 16.1856 6.75644 16.2657 6.59615L15.785 5.47407ZM13.7022 8.11229L12.6609 9.07407L11.9399 8.27259L12.9813 7.3108L12.741 7.07036L11.6996 8.03214L11.1388 7.4711L12.1802 6.50932L11.9399 6.26888L10.498 7.6314L12.5741 9.86888L14.016 8.50635L13.6956 8.10561L13.7022 8.11229ZM10.024 9.70858C10.1041 9.78873 10.1041 9.86888 10.1041 9.94902V10.1895C10.1041 10.2696 10.024 10.3498 9.94391 10.4299L9.70359 10.7505L8.82241 10.1093L9.06273 9.78873C9.14284 9.70858 9.14284 9.62843 9.22294 9.54828C9.27635 9.49485 9.32975 9.46813 9.38316 9.46813H9.62348C9.70358 9.46813 9.78369 9.54828 9.8638 9.54828C9.9439 9.54828 10.024 9.62843 10.024 9.70858ZM10.4245 10.1093C10.5047 9.94902 10.4245 9.70858 10.4245 9.54828C10.3444 9.38798 10.2643 9.22769 10.1041 9.14754C9.9439 9.06739 9.8638 8.98724 9.70359 8.98724C9.62348 8.98724 9.46327 8.98724 9.38316 9.06739C9.30305 9.06739 9.22294 9.14754 9.14284 9.22769C9.06273 9.30784 8.98262 9.38798 8.90252 9.54828L8.42188 10.1895L10.8985 11.9527L11.1388 11.6321L10.0173 10.9108L10.3378 10.5101L11.9399 10.4299L12.1802 10.0292L10.4179 10.1093H10.4245Z" fill="#909090"/>
<path d="M4.26938 19.2328H5.55109V19.313C5.55109 19.4733 5.63119 19.5534 5.7113 19.6336C5.87151 19.7137 5.95162 19.7939 6.19194 19.7939C6.35215 19.7939 6.51237 19.7137 6.59248 19.6336C6.67258 19.5534 6.75269 19.4733 6.75269 19.313C6.75269 19.1527 6.67258 19.0725 6.59248 18.9924C6.51237 18.9122 6.27205 18.8321 5.95162 18.6718C5.39087 18.4313 4.99034 18.1909 4.58981 17.9505C4.34949 17.71 4.18927 17.3894 4.18927 16.9085C4.18927 16.4276 4.34948 16.0269 4.66991 15.6262C4.99034 15.3056 5.47098 15.1453 6.11183 15.1453C6.43226 15.1453 6.75269 15.2254 7.07312 15.3857C7.39354 15.546 7.55376 15.7063 7.71397 16.0269C7.87419 16.2673 7.95429 16.5078 7.95429 16.9085H6.59248C6.59248 16.5879 6.35216 16.3475 6.03173 16.3475C5.87151 16.3475 5.7113 16.3475 5.63119 16.4276C5.55109 16.5078 5.55109 16.5879 5.55109 16.7482C5.55109 16.9085 5.63119 17.0688 5.79141 17.149C5.87151 17.2291 6.11183 17.3093 6.43226 17.3894C6.99301 17.6299 7.31344 17.7902 7.55376 17.9505C7.87418 18.1909 8.0344 18.5916 8.0344 18.9924C8.0344 19.4733 7.87418 19.874 7.47365 20.2748C7.15322 20.5954 6.67258 20.7557 6.03173 20.7557C5.47098 20.7557 4.99034 20.5954 4.58981 20.2748C4.42959 20.1145 4.26938 19.7137 4.26938 19.2328Z" fill="#909090"/>
<path d="M12.4272 16.5077H11.1455V20.9092H9.78366V16.5077H8.50195V15.4658H12.4205V16.5077H12.4272Z" fill="#909090"/>
<path d="M15.5432 15.2324C16.3443 15.2324 17.0652 15.4729 17.5392 16.0339C18.1 16.5949 18.3403 17.3163 18.3403 18.1111C18.3403 18.9059 18.1 19.6339 17.5392 20.1081C16.9785 20.6692 16.2575 20.9096 15.4631 20.9096C14.6687 20.9096 13.9411 20.6692 13.387 20.1081C12.8329 19.5471 12.5859 18.8257 12.5859 18.1111C12.5859 17.3096 12.9064 16.5883 13.4671 16.0339C14.0279 15.4729 14.6687 15.2324 15.5432 15.2324ZM15.5432 16.5081C15.1427 16.5081 14.7421 16.6684 14.4217 16.989C14.1013 17.3096 14.0212 17.6302 14.0212 18.1111C14.0212 18.5118 14.1814 18.9126 14.4217 19.2332C14.7421 19.5538 15.0626 19.7141 15.4631 19.7141C15.8636 19.7141 16.2642 19.5538 16.5045 19.2332C16.8249 18.9126 16.905 18.592 16.905 18.1111C16.905 17.6302 16.7448 17.3096 16.5045 16.989C16.2642 16.6684 15.9437 16.5081 15.5432 16.5081Z" fill="#909090"/>
<path d="M21.7001 20.9094L20.4184 18.7521V20.9094H19.1367V15.4727H20.8991C21.62 15.4727 22.1808 15.633 22.5012 15.8734C22.9017 16.194 23.062 16.5947 23.062 17.3161C23.062 18.1176 22.7415 18.7587 22.0206 18.9992L23.3023 20.9962L21.7001 20.9161V20.9094ZM20.4985 16.5079V18.0307H20.8991C21.1394 18.0307 21.3797 17.9506 21.5399 17.8704C21.7001 17.7101 21.7802 17.5498 21.7802 17.3094C21.7802 17.0689 21.7001 16.9086 21.5399 16.7484C21.3797 16.5881 21.2195 16.5079 20.9792 16.5079H20.4985Z" fill="#909090"/>
<path d="M27.5338 20.9094L27.2934 20.1079H25.3776L25.1372 20.9094H23.6953L25.5311 15.4727H27.2133L29.0491 20.9094H27.5271H27.5338ZM25.698 18.9925H27.0598L26.3388 16.9153L25.698 18.9925Z" fill="#909090"/>
<path d="M32.1721 18.8324V17.7905H34.9692V18.0309C34.9692 18.9126 34.6488 19.6339 34.088 20.1883C33.5273 20.6692 32.8063 20.9096 32.092 20.9096C31.2909 20.9096 30.57 20.6692 30.0159 20.1081C29.4618 19.5471 29.2148 18.8257 29.2148 18.1111C29.2148 17.3096 29.4552 16.5883 30.0159 16.0339C30.5767 15.4795 31.2976 15.2324 32.092 15.2324C32.5727 15.2324 32.9732 15.3126 33.4538 15.4729C33.8544 15.6332 34.1748 15.9538 34.4151 16.2744L33.4538 16.9957C33.1334 16.5949 32.7329 16.3545 32.1721 16.3545C31.7716 16.3545 31.3711 16.5148 31.1307 16.8354C30.8103 17.156 30.7302 17.4766 30.7302 17.9575C30.7302 18.3582 30.8904 18.759 31.2108 19.0795C31.5313 19.4001 31.8517 19.5604 32.3323 19.5604C32.6528 19.5604 32.8931 19.4803 33.1334 19.32C33.3737 19.1597 33.5339 18.9192 33.614 18.6788L32.1721 18.8391V18.8324Z" fill="#909090"/>
<path d="M38.6487 16.5082H36.813V17.5501H38.6487V18.5921H36.813V19.7141H38.6487V20.7561H35.5312V15.3193H38.6487V16.5216V16.5082Z" fill="#909090"/>
</svg>
