<svg width="97" height="33" viewBox="0 0 97 33" fill="none" xmlns="http://www.w3.org/2000/svg">
<path d="M36.3777 0.849121V4.65617H38.3136V5.39086H35.5099V0.849121H36.3777Z" fill="#919191"/>
<path d="M39.8477 1.58381H39.1134V0.849121H39.8477V1.58381ZM39.8477 5.39086H39.1134V2.18493H39.8477V5.39086Z" fill="#919191"/>
<path d="M40.7168 3.7879C40.7168 2.78604 41.2508 2.11814 42.1187 2.11814C42.5192 2.11814 42.853 2.31851 43.0532 2.51888V0.849121H43.8543V5.39086H43.12V5.05691C42.9197 5.32407 42.586 5.45766 42.1854 5.45766C41.2508 5.45766 40.7168 4.78975 40.7168 3.7879ZM42.3189 2.78604C41.8516 2.78604 41.5179 3.18678 41.5179 3.7879C41.5179 4.38901 41.8516 4.78975 42.3189 4.78975C42.7862 4.78975 43.12 4.38901 43.12 3.7879C43.12 3.18678 42.7862 2.78604 42.3189 2.78604Z" fill="#919191"/>
<path d="M49.1288 2.18506L48.0607 5.391H47.2596L46.1915 2.18506H46.9926L47.4599 3.85482C47.5934 4.18877 47.6602 4.52272 47.6602 4.52272C47.6602 4.52272 47.7269 4.18877 47.8604 3.85482L48.3277 2.18506H49.1288Z" fill="#919191"/>
<path d="M52.3332 4.6562C52.3332 4.85657 52.3999 4.92336 52.5334 4.92336V5.39089C52.4667 5.39089 52.3332 5.45768 52.1329 5.45768C51.8659 5.45768 51.6656 5.39089 51.5988 5.12373C51.4653 5.25731 51.1983 5.45768 50.6643 5.45768C49.9967 5.45768 49.5294 5.12373 49.5294 4.45583C49.5294 3.72113 50.1302 3.52076 51.0648 3.38718L51.3318 3.32039C51.5321 3.2536 51.5988 3.2536 51.5988 3.12002C51.5988 2.85286 51.3986 2.71928 50.998 2.71928C50.5975 2.71928 50.3305 2.91965 50.3305 3.2536H49.5962C49.5962 2.45212 50.197 2.11816 50.998 2.11816C51.7324 2.11816 52.2664 2.38533 52.2664 3.05323V4.6562H52.3332ZM51.5988 4.25546V3.85471C51.5321 3.9215 51.4653 3.9215 51.3318 3.9215L50.8645 3.98829C50.5308 4.12187 50.3305 4.25546 50.3305 4.45583C50.3305 4.72299 50.5308 4.85657 50.8645 4.85657C51.2651 4.92336 51.5988 4.72299 51.5988 4.25546Z" fill="#919191"/>
<path d="M56.2041 5.39089H55.4698V3.78792C55.4698 3.52076 55.4698 3.32039 55.4031 3.18681C55.3363 2.91965 55.2028 2.78607 54.869 2.78607C54.4017 2.78607 54.1347 3.18681 54.1347 3.65434V5.39089H53.4004V2.18495H54.1347V2.5857C54.2682 2.31854 54.6687 2.11816 55.136 2.11816C55.4698 2.11816 55.8036 2.25174 56.0039 2.51891C56.1374 2.71928 56.2041 2.98644 56.2041 3.58755V5.39089Z" fill="#919191"/>
<path d="M73.0928 9.06445H71.424V10.7342H73.0928V9.06445Z" fill="#919191"/>
<path d="M37.9789 18.3483H39.6478V10.6006H42.3181V9.06445H35.3087V10.6006H37.9789V18.3483Z" fill="#919191"/>
<path d="M45.1873 18.4819C46.9229 18.4819 47.8575 17.4801 48.258 16.8122V16.7454L47.1232 15.8771V15.9439C46.9229 16.2111 46.4556 17.0126 45.3208 17.0126C43.9857 17.0126 43.6519 16.0107 43.5851 15.4764H48.258V15.4096C48.258 15.3428 48.258 15.276 48.258 15.2092C48.258 15.1424 48.258 15.0756 48.258 15.0088C48.258 12.8716 47.1232 11.6025 45.1873 11.6025C43.3181 11.6025 41.983 13.0051 41.983 14.9421C41.9162 17.1461 43.2513 18.4819 45.1873 18.4819ZM43.5851 14.3409C43.6519 13.6062 44.3194 13.0051 45.1205 13.0051C45.9216 13.0051 46.5224 13.5395 46.5891 14.3409H43.5851Z" fill="#919191"/>
<path d="M52.4645 18.4818C53.9999 18.4818 55.0012 17.5468 55.335 16.6785V16.6117L53.9999 15.877V15.9438C53.7329 16.6785 53.1988 17.0125 52.5313 17.0125C51.5299 17.0125 50.9291 16.2778 50.9291 15.0087C50.9291 13.7397 51.5299 13.005 52.5313 13.005C53.3991 13.005 53.7996 13.6061 53.9999 14.1405V14.2073L55.4018 13.4726V13.4058C54.9345 12.2035 53.9331 11.5356 52.5313 11.5356C50.5953 11.5356 49.327 12.9382 49.327 14.942C49.2602 17.2128 50.4618 18.4818 52.4645 18.4818Z" fill="#919191"/>
<path d="M60.541 13.8065C60.6077 14.1404 60.6745 14.4744 60.6745 15.0087V18.2814H62.3434V14.6079C62.3434 13.2721 62.2099 12.8046 61.8761 12.4039C61.4755 11.8695 60.8747 11.6024 60.0737 11.6024C59.2059 11.6024 58.4715 11.9363 58.1378 12.4707V8.99756H56.4689V18.2814H58.1378V14.8083C58.1378 13.7397 58.6051 13.0718 59.4729 13.0718C60.0737 13.1386 60.4075 13.3389 60.541 13.8065Z" fill="#919191"/>
<path d="M68.0175 13.8066C68.0843 14.1406 68.151 14.4745 68.151 15.0088V18.2816H69.8199V14.6081C69.8199 13.2723 69.6864 12.8048 69.3526 12.404C68.9521 11.8697 68.3513 11.6025 67.5502 11.6025C66.6824 11.6025 65.9481 11.9365 65.6143 12.4708V11.8029H63.9454V18.3484H65.6143V14.8753C65.6143 13.8066 66.0816 13.1387 66.9494 13.1387C67.5502 13.1387 67.884 13.3391 68.0175 13.8066Z" fill="#919191"/>
<path d="M73.0928 11.8027H71.424V18.3482H73.0928V11.8027Z" fill="#919191"/>
<path d="M80.7029 16.8786L79.568 15.9435V16.0103C79.3678 16.2775 78.9005 17.079 77.7656 17.079C76.4305 17.079 76.0967 16.0771 76.03 15.5428H80.7029V15.476C80.7029 15.4092 80.7029 15.3424 80.7029 15.2756C80.7029 15.2088 80.7029 15.142 80.7029 15.0753C80.7029 12.938 79.568 11.6689 77.6321 11.6689C75.763 11.6689 74.4279 13.0715 74.4279 15.0085C74.4279 17.079 75.763 18.4816 77.6989 18.4816C79.3678 18.4816 80.3024 17.4797 80.7029 16.8786ZM76.03 14.3406C76.0967 13.6059 76.7643 13.0048 77.5654 13.0048C78.3664 13.0048 78.9672 13.5391 79.034 14.3406H76.03Z" fill="#919191"/>
<path d="M83.7058 16.3446L84.6404 15.4763L86.5095 18.3483H88.5789L85.7752 14.4077L88.3787 11.8029H86.2425L83.7058 14.4077V9.06445H82.1036V18.3483H83.7058V16.3446Z" fill="#919191"/>
<path d="M41.784 25.094C41.784 25.9623 41.784 27.0309 41.784 27.6988C41.784 27.8992 41.784 28.0328 41.784 28.1663C41.6504 27.8992 41.3167 27.4316 41.1832 27.2313L37.6451 21.9548H36.043V31.2387H37.8454V28.0995C37.8454 26.6969 37.8454 25.4279 37.8454 24.8936C37.8454 24.9604 37.9121 24.9604 37.9121 25.0272C38.0456 25.2276 38.1792 25.4947 38.3127 25.6951L41.9175 31.2387H43.5196V21.9548H41.784V25.094Z" fill="#919191"/>
<path d="M49.9274 28.9009C49.7271 29.1681 49.2599 29.9696 48.125 29.9696C46.7899 29.9696 46.4561 28.9677 46.3894 28.4334H51.0623V28.3666C51.0623 28.2998 51.0623 28.233 51.0623 28.1663C51.0623 28.0995 51.0623 28.0327 51.0623 27.9659C51.0623 25.8286 49.9274 24.5596 47.9915 24.5596C46.1223 24.5596 44.7872 25.9622 44.7872 27.8991C44.7872 29.9696 46.1223 31.3722 48.0583 31.3722C49.7939 31.3722 50.7285 30.3703 51.129 29.7024V29.6356L49.9274 28.9009ZM46.4561 27.2312C46.5229 26.4965 47.1904 25.8954 47.9915 25.8954C48.7926 25.8954 49.3934 26.4297 49.4601 27.2312H46.4561Z" fill="#919191"/>
<path d="M56.8708 25.3611C56.537 24.9604 55.8694 24.5597 55.0016 24.5597C53.2659 24.5597 52.1311 25.9623 52.1311 28.0328C52.1311 30.0365 53.3327 31.4391 55.0016 31.4391C55.7359 31.4391 56.4035 31.1719 56.8708 30.7044V31.3055H58.5396V21.9548H56.8708V25.3611ZM55.3354 29.9697C54.334 29.9697 53.7332 29.235 53.7332 27.966C53.7332 26.7637 54.334 25.9623 55.3354 25.9623C56.27 25.9623 56.9375 26.7637 56.9375 27.966C56.9375 29.1682 56.27 29.9697 55.3354 29.9697Z" fill="#919191"/>
<path d="M64.8805 28.9009C64.6803 29.1681 64.213 29.9696 63.0781 29.9696C61.743 29.9696 61.4092 28.9677 61.3425 28.4334H66.0154V28.3666C66.0154 28.2998 66.0154 28.233 66.0154 28.1663C66.0154 28.0995 66.0154 28.0327 66.0154 27.9659C66.0154 25.8286 64.8805 24.5596 62.9446 24.5596C61.0755 24.5596 59.7404 25.9622 59.7404 27.8991C59.7404 29.9696 61.0755 31.3722 63.0114 31.3722C64.747 31.3722 65.6816 30.3703 66.0821 29.7024V29.6356L64.8805 28.9009ZM61.3425 27.2312C61.4092 26.4965 62.0768 25.8954 62.8779 25.8954C63.6789 25.8954 64.2797 26.4297 64.3465 27.2312H61.3425Z" fill="#919191"/>
<path d="M70.823 24.5595C69.8216 24.5595 69.2208 25.0938 69.0206 25.4945V24.693H67.3517V31.2385H69.0206V28.2997C69.0206 27.7654 69.0873 27.3647 69.2208 27.0307C69.4211 26.4296 69.8884 26.1624 70.6895 26.1624C70.823 26.1624 70.9565 26.1624 71.09 26.1624H71.1568V24.4927H71.09C70.9565 24.5595 70.9565 24.5595 70.823 24.5595Z" fill="#919191"/>
<path d="M74.0284 21.9551H72.3595V31.2389H74.0284V21.9551Z" fill="#919191"/>
<path d="M81.0373 29.7024V26.4965C81.0373 25.2275 80.1695 24.5596 78.4338 24.5596C77.6995 24.5596 76.7649 24.6932 76.1641 25.2943C75.7636 25.695 75.6301 26.1625 75.6301 26.7637V26.8304L77.1655 26.964V26.8972C77.1655 26.5633 77.2322 26.2961 77.4325 26.1625C77.6327 25.9622 77.9665 25.8286 78.4338 25.8286C79.1681 25.8286 79.5019 26.0957 79.5019 26.5633V26.6969C79.5019 26.8972 79.5019 26.8972 79.1681 26.964L77.7663 27.2312C76.8317 27.4316 76.2309 27.6987 75.8303 28.0995C75.5633 28.4334 75.4298 28.7674 75.4298 29.2349C75.4298 30.5039 76.2976 31.3054 77.7663 31.3054C78.6341 31.3054 79.2349 31.105 79.6354 30.6375C79.7689 31.0382 80.1695 31.2386 80.7703 31.2386C81.1708 31.2386 81.3711 31.1718 81.4378 31.1718H81.5046V30.17H81.3711C81.0373 30.17 81.0373 30.1032 81.0373 29.7024ZM79.4351 28.1663V28.9009C79.4351 29.7024 78.9679 30.17 78.1 30.17C77.4325 30.17 77.0319 29.9028 77.0319 29.3685C77.0319 28.9009 77.299 28.7006 78.0333 28.567L78.6341 28.4334C79.0346 28.2998 79.2349 28.233 79.4351 28.1663Z" fill="#919191"/>
<path d="M86.3764 24.5596C85.5086 24.5596 84.7743 24.8935 84.4405 25.4278V24.7599H82.7716V31.3054H84.4405V27.8323C84.4405 26.7637 84.9078 26.0958 85.7756 26.0958C86.3764 26.0958 86.7102 26.2961 86.8437 26.8304C86.9105 27.1644 86.9772 27.4983 86.9772 28.0327V31.3054H88.6461V27.6319C88.6461 26.2961 88.5126 25.8286 88.1788 25.4278C87.7783 24.8267 87.1775 24.5596 86.3764 24.5596Z" fill="#919191"/>
<path d="M94.521 21.9548V25.2944C94.1872 24.8936 93.5197 24.4929 92.6519 24.4929C90.9162 24.4929 89.7814 25.8955 89.7814 27.966C89.7814 29.9697 90.983 31.3723 92.6519 31.3723C93.3862 31.3723 94.0537 31.1051 94.521 30.6376V31.2387H96.1899V21.9548H94.521ZM92.9856 29.9697C91.9843 29.9697 91.3835 29.235 91.3835 27.966C91.3835 26.7637 91.9843 25.9623 92.9856 25.9623C93.9202 25.9623 94.5878 26.7637 94.5878 27.966C94.5878 29.1682 93.987 29.9697 92.9856 29.9697Z" fill="#919191"/>
<path d="M20.6223 12.3373V8.93097H31.3699C31.0362 8.19627 30.5689 7.52837 30.1016 6.86047H26.163V2.85305C25.4954 2.38551 24.8279 1.98477 24.0936 1.58403V6.79368H20.6223V0.381803C19.9547 0.181432 19.2204 0.114642 18.5529 0.0478516V14.4746H32.9721C32.9053 13.8067 32.7718 13.072 32.6383 12.4041H20.6223V12.3373Z" fill="#919191"/>
<path d="M15.1475 0.0478516C14.48 0.114642 13.7456 0.248223 13.0781 0.381803V7.46158L8.13817 2.51909C7.53737 2.91984 7.00332 3.32058 6.46928 3.78811L13.0781 10.4004V15.2093L4.06607 6.19256C3.59878 6.72689 3.19825 7.328 2.86447 7.92911L7.3371 12.4041H7.27034C7.07008 12.4041 6.93657 12.4041 6.7363 12.4041H1.12882C0.928555 13.072 0.8618 13.8067 0.795044 14.4746H6.80305C10.2076 14.4746 13.0781 17.2798 13.0781 20.6861V31.8401C13.7456 32.0404 14.48 32.1072 15.1475 32.174V19.8846H18.5521V32.174C19.2196 32.1072 19.9539 31.9736 20.6215 31.8401V25.6286L25.0274 30.0367C25.6282 29.7028 26.229 29.302 26.763 28.8345L20.6215 22.6898V19.8846H22.5574L29.233 26.5636C29.7003 26.0293 30.1008 25.495 30.5013 24.8939L25.5614 19.9514H32.6375C32.8378 19.2835 32.9045 18.5488 32.9713 17.8809H15.1475V0.0478516Z" fill="#919191"/>
<path d="M6.60314 17.814H0.728638C0.795393 18.4819 0.928905 19.2166 1.06242 19.8845H6.53638C7.07043 19.8845 7.47096 20.2852 7.47096 20.8195V23.2908H2.33077C2.66455 24.0255 3.13184 24.6934 3.59913 25.3613H7.53772V29.3019C8.20527 29.7694 8.87283 30.1702 9.60714 30.5709V20.8195C9.60714 19.1498 8.27203 17.814 6.60314 17.814Z" fill="#919191"/>
</svg>
