<svg width="33" height="36" viewBox="0 0 33 36" fill="none" xmlns="http://www.w3.org/2000/svg">
<path d="M6.24594 10.4636H0.304688C2.8414 5.12032 7.84808 1.31327 13.9228 0.445C14.7239 0.311419 15.5917 0.244629 16.4596 0.244629C23.6024 0.244629 29.7439 4.45242 32.6144 10.4636H26.6732C24.3367 7.3912 20.6652 5.38749 16.4596 5.38749C15.5917 5.38749 14.7239 5.45428 13.9228 5.65465V10.5303H6.24594V10.4636Z" fill="#919191"/>
<path d="M26.6732 25.7584H32.6144C30.0777 31.0349 25.071 34.9087 18.9963 35.777C18.1952 35.9106 17.3274 35.9774 16.4596 35.9774C9.3167 35.9774 3.17518 31.7696 0.304688 25.7584H6.24594C8.58239 28.8308 12.254 30.8345 16.4596 30.8345C17.3274 30.8345 18.1952 30.7677 18.9963 30.5673V25.6917H26.6732V25.7584Z" fill="#919191"/>
<path d="M0.304688 12.8013H8.91617V14.9386L3.70923 21.1501H9.11644V23.4209H0.304688V21.2169L5.44488 15.0721H0.304688V12.8013Z" fill="#919191"/>
<path d="M12.0527 23.4209V12.8013H16.8591C17.727 12.8013 18.4613 12.8681 18.9286 13.0684C19.3959 13.2688 19.7964 13.536 20.0634 14.0703C20.3304 14.5378 20.4639 15.1389 20.4639 15.8068C20.4639 16.4079 20.3304 16.8755 20.1302 17.343C19.9299 17.7438 19.5961 18.1445 19.1956 18.4117C18.9286 18.612 18.5948 18.7456 18.1943 18.8124C18.528 18.946 18.7951 19.0796 18.9286 19.2131C19.0621 19.2799 19.1956 19.4803 19.3959 19.7475C19.5961 20.0146 19.7296 20.2818 19.7964 20.4154L21.1983 23.4877H17.9272L16.3919 20.215C16.1916 19.8143 15.9913 19.5471 15.8578 19.4135C15.6575 19.2799 15.3905 19.1464 15.1235 19.1464H14.8565V23.4877H12.0527V23.4209ZM14.9232 17.0759H16.1248C16.2583 17.0759 16.5254 17.0091 16.8591 16.9423C17.0594 16.8755 17.1929 16.8087 17.3264 16.6083C17.4599 16.4079 17.5267 16.2076 17.5267 16.0072C17.5267 15.6733 17.4599 15.4061 17.2597 15.2057C17.0594 15.0054 16.7256 14.9386 16.1916 14.9386H14.9232V17.0759Z" fill="#919191"/>
<path d="M23.6699 12.8013H26.4069L29.8782 18.6788V12.8013H32.6152V23.4209H29.8782L26.4069 17.6102V23.4209H23.6699V12.8013Z" fill="#919191"/>
</svg>
